<?xml version="1.0" encoding="UTF-8"?>
<svg version="1.1" xmlns="http://www.w3.org/2000/svg" width="413" height="246">
<path d="M0 0 C1.16189205 0.00334608 1.16189205 0.00334608 2.34725666 0.00675976 C3.16411599 0.00519977 3.98097532 0.00363978 4.82258797 0.00203252 C7.58107294 -0.00198091 10.33950363 0.00121348 13.09798908 0.00434887 C15.06693269 0.00299498 17.03587605 0.00121512 19.00481892 -0.00096118 C24.36829844 -0.00553699 29.73175881 -0.00374536 35.09523869 -0.0005821 C40.69487022 0.00194075 46.29450006 -0.00039582 51.89413166 -0.00196826 C61.29965225 -0.00379018 70.705165 -0.00138307 80.11068439 0.00337231 C91.0016696 0.00881497 101.89263608 0.00705233 112.78362083 0.00154591 C122.11606507 -0.00298459 131.44850366 -0.00363608 140.78094864 -0.00101542 C146.36283837 0.0005477 151.94471929 0.00074016 157.52660847 -0.00255191 C162.77303288 -0.00542971 168.01943305 -0.00345662 173.26585484 0.00234234 C175.19727888 0.00367043 177.12870495 0.003275 179.06012821 0.00107968 C181.68499985 -0.00162992 184.30979248 0.00174694 186.934659 0.00675976 C187.7092537 0.00452904 188.4838484 0.00229832 189.28191566 0 C194.52680799 0.01959356 194.52680799 0.01959356 195.64095783 1.13374341 C195.73399801 2.60728688 195.75842048 4.08524931 195.75448322 5.56172192 C195.75440769 6.50262173 195.75433216 7.44352154 195.75425434 8.41293347 C195.74909306 9.43583981 195.74393177 10.45874615 195.73861408 11.51264966 C195.73649166 13.0753484 195.73649166 13.0753484 195.73432636 14.66961682 C195.72870863 18.01185435 195.71615313 21.35402597 195.70345783 24.69624341 C195.69844512 26.95600807 195.69388181 29.21577377 195.68978596 31.47554028 C195.67873344 37.02829731 195.66197807 42.58101565 195.64095783 48.13374341 C194.65095783 48.13374341 193.66095783 48.13374341 192.64095783 48.13374341 C192.64095783 33.28374341 192.64095783 18.43374341 192.64095783 3.13374341 C127.96095783 3.13374341 63.28095783 3.13374341 -3.35904217 3.13374341 C-3.35904217 17.32374341 -3.35904217 31.51374341 -3.35904217 46.13374341 C6.42402724 46.05460761 6.42402724 46.05460761 16.2068758 45.95356762 C17.42004475 45.94857251 18.63321369 45.94357739 19.88314533 45.93843091 C21.75268879 45.92272046 21.75268879 45.92272046 23.6600008 45.90669262 C26.64095783 46.13374341 26.64095783 46.13374341 28.64095783 48.13374341 C29.8853045 52.40912797 29.75923121 56.72408785 29.74642658 61.13764966 C29.75987301 62.69821044 29.7748944 64.25875831 29.79134846 65.81929028 C29.81423611 68.2643311 29.82839878 70.70789547 29.81600666 73.15303051 C29.80719984 75.5239703 29.83604015 77.89201051 29.87142658 80.26264966 C29.85919559 80.99190152 29.84696461 81.72115338 29.83436298 82.47250378 C29.8270876 84.81878426 29.8270876 84.81878426 30.64095783 88.13374341 C33.4670108 90.58634838 33.4670108 90.58634838 36.64095783 92.13374341 C40.14676628 95.51866191 40.3971259 99.45404589 40.64095783 104.13374341 C40.57908283 104.99999341 40.51720783 105.86624341 40.45345783 106.75874341 C40.44360691 109.36621505 40.44360691 109.36621505 42.64095783 111.75874341 C45.46150223 116.51841207 45.47840003 120.71882592 44.64095783 126.13374341 C43.3743525 128.17665523 42.04209399 130.18064452 40.64095783 132.13374341 C40.02202079 135.1244472 39.77642764 138.08567265 39.64095783 141.13374341 C38.32095783 141.46374341 37.00095783 141.79374341 35.64095783 142.13374341 C34.78404142 145.56140904 34.62921286 147.76126016 35.64095783 151.13374341 C35.64095783 154.86736182 34.9735775 157.64354904 33.64095783 161.13374341 C31.01595783 162.57124341 31.01595783 162.57124341 28.64095783 163.13374341 C27.14095783 161.88374341 27.14095783 161.88374341 25.64095783 160.13374341 C25.64095783 158.81374341 25.64095783 157.49374341 25.64095783 156.13374341 C23.19979158 156.16677272 20.76777272 156.23388502 18.32845783 156.32124341 C17.29301838 156.32994458 17.29301838 156.32994458 16.23666096 156.33882153 C13.93932523 156.38764799 13.93932523 156.38764799 10.64095783 157.13374341 C8.80351519 159.5665826 8.80351519 159.5665826 7.64095783 162.13374341 C3.69032115 162.7221361 1.03165877 162.2203286 -2.35904217 160.13374341 C-4.84403989 172.55873201 -3.35904217 185.46269153 -3.35904217 198.13374341 C61.32095783 198.13374341 126.00095783 198.13374341 192.64095783 198.13374341 C192.64095783 183.94374341 192.64095783 169.75374341 192.64095783 155.13374341 C193.63095783 154.80374341 194.62095783 154.47374341 195.64095783 154.13374341 C195.64095783 169.64374341 195.64095783 185.15374341 195.64095783 201.13374341 C178.82849756 201.3058322 162.01604074 201.47457675 145.20345783 201.63374341 C143.32235813 201.65155928 143.32235813 201.65155928 141.40325642 201.66973507 C104.98206775 202.01235252 68.56381712 202.22868055 32.14095783 202.19624341 C31.17258614 202.19538739 30.20421444 202.19453137 29.20649815 202.19364941 C17.68462985 202.18267122 6.16279357 202.16327799 -5.35904217 202.13374341 C-7.61232063 194.74559469 -7.61232063 194.74559469 -7.58609295 190.85078442 C-7.58594189 190.09052456 -7.58579082 189.33026471 -7.58563519 188.54696667 C-7.57531261 187.75189206 -7.56499004 186.95681744 -7.55435467 186.13764966 C-7.55152477 185.30410458 -7.54869488 184.47055951 -7.54577923 183.61175549 C-7.53466506 180.97309981 -7.50957731 178.33479493 -7.48404217 175.69624341 C-7.47400102 173.89742021 -7.46487716 172.09859165 -7.45669842 170.29975903 C-7.43475452 165.91095385 -7.40028603 161.52240792 -7.35904217 157.13374341 C-8.84283367 157.09615918 -8.84283367 157.09615918 -10.35660076 157.05781567 C-14.02063621 156.96376553 -17.68448101 156.86353912 -21.34829998 156.76142895 C-22.93516873 156.718071 -24.5220844 156.67639654 -26.10904217 156.63642895 C-28.38783196 156.57874709 -30.66638539 156.51504702 -32.94497967 156.45014966 C-33.65649181 156.43343716 -34.36800396 156.41672467 -35.10107708 156.39950573 C-40.13129875 156.24761511 -40.13129875 156.24761511 -42.35904217 155.13374341 C-43.3164883 152.35006346 -43.48452908 149.7652266 -43.48602581 146.83856213 C-43.48884563 145.98756939 -43.49166546 145.13657666 -43.49457073 144.25979626 C-43.4925465 143.33446591 -43.49052227 142.40913556 -43.4884367 141.45576489 C-43.49018902 140.47488904 -43.49194134 139.49401318 -43.49374676 138.48341382 C-43.49814877 135.24053694 -43.49523328 131.99771458 -43.49185467 128.75483716 C-43.49252813 126.50329591 -43.4934985 124.25175474 -43.49475384 122.00021374 C-43.49622853 117.28177713 -43.49408337 112.56335945 -43.48941326 107.84492505 C-43.48371285 101.78966243 -43.48699841 95.73444412 -43.49298573 89.67918313 C-43.4965947 85.03045325 -43.49545125 80.38173392 -43.49285793 75.73300374 C-43.49218977 73.49982268 -43.49301325 71.26664068 -43.49533749 69.03346074 C-43.49786984 65.91639037 -43.49401525 62.79939235 -43.4884367 59.68232739 C-43.49046093 58.75497281 -43.49248516 57.82761822 -43.49457073 56.87216198 C-43.49175091 56.02398907 -43.48893108 55.17581616 -43.48602581 54.30194104 C-43.48564878 53.56509296 -43.48527176 52.82824488 -43.48488331 52.06906807 C-43.35904217 50.13374341 -43.35904217 50.13374341 -42.35904217 47.13374341 C-39.29309623 45.60077043 -36.08792364 46.01242886 -32.72622967 46.03608716 C-31.59847622 46.03820958 -31.59847622 46.03820958 -30.44793987 46.04037488 C-28.04326707 46.04597875 -25.6386869 46.05853184 -23.23404217 46.07124341 C-21.60513726 46.07625791 -19.9762309 46.0808209 -18.34732342 46.08491528 C-14.3511939 46.09594944 -10.35513375 46.11321662 -6.35904217 46.13374341 C-6.36126278 45.57220059 -6.36348339 45.01065777 -6.36577129 44.43209851 C-6.38782523 38.60893906 -6.40294921 32.78579139 -6.41397381 26.96260083 C-6.41901524 24.78681468 -6.42584824 22.61103194 -6.43448162 20.43525708 C-6.44655555 17.31521274 -6.45227221 14.19521302 -6.45669842 11.07514966 C-6.4618597 10.09599087 -6.46702099 9.11683209 -6.47233868 8.10800183 C-6.47241421 7.20714352 -6.47248974 6.30628521 -6.47256756 5.37812817 C-6.47478817 4.58092862 -6.47700878 3.78372906 -6.47929668 2.96237195 C-6.21788117 -1.01279578 -3.30452104 0.01234484 0 0 Z M29.64095783 92.13374341 C29.64095783 96.42374341 29.64095783 100.71374341 29.64095783 105.13374341 C31.95095783 105.46374341 34.26095783 105.79374341 36.64095783 106.13374341 C37.71207972 102.82300304 37.71322648 101.33448964 36.51595783 98.00874341 C34.6006216 94.6140566 34.6006216 94.6140566 29.64095783 92.13374341 Z " fill="#D38D51" transform="translate(68.35904216766357,24.866256594657898)"/>
<path d="M0 0 C1.16189205 0.00334608 1.16189205 0.00334608 2.34725666 0.00675976 C3.16411599 0.00519977 3.98097532 0.00363978 4.82258797 0.00203252 C7.58107294 -0.00198091 10.33950363 0.00121348 13.09798908 0.00434887 C15.06693269 0.00299498 17.03587605 0.00121512 19.00481892 -0.00096118 C24.36829844 -0.00553699 29.73175881 -0.00374536 35.09523869 -0.0005821 C40.69487022 0.00194075 46.29450006 -0.00039582 51.89413166 -0.00196826 C61.29965225 -0.00379018 70.705165 -0.00138307 80.11068439 0.00337231 C91.0016696 0.00881497 101.89263608 0.00705233 112.78362083 0.00154591 C122.11606507 -0.00298459 131.44850366 -0.00363608 140.78094864 -0.00101542 C146.36283837 0.0005477 151.94471929 0.00074016 157.52660847 -0.00255191 C162.77303288 -0.00542971 168.01943305 -0.00345662 173.26585484 0.00234234 C175.19727888 0.00367043 177.12870495 0.003275 179.06012821 0.00107968 C181.68499985 -0.00162992 184.30979248 0.00174694 186.934659 0.00675976 C187.7092537 0.00452904 188.4838484 0.00229832 189.28191566 0 C194.52680799 0.01959356 194.52680799 0.01959356 195.64095783 1.13374341 C195.73399801 2.60728688 195.75842048 4.08524931 195.75448322 5.56172192 C195.75440769 6.50262173 195.75433216 7.44352154 195.75425434 8.41293347 C195.74909306 9.43583981 195.74393177 10.45874615 195.73861408 11.51264966 C195.73649166 13.0753484 195.73649166 13.0753484 195.73432636 14.66961682 C195.72870863 18.01185435 195.71615313 21.35402597 195.70345783 24.69624341 C195.69844512 26.95600807 195.69388181 29.21577377 195.68978596 31.47554028 C195.67873344 37.02829731 195.66197807 42.58101565 195.64095783 48.13374341 C194.65095783 48.13374341 193.66095783 48.13374341 192.64095783 48.13374341 C192.64095783 33.28374341 192.64095783 18.43374341 192.64095783 3.13374341 C127.96095783 3.13374341 63.28095783 3.13374341 -3.35904217 3.13374341 C-3.35904217 17.32374341 -3.35904217 31.51374341 -3.35904217 46.13374341 C6.42402724 46.05460761 6.42402724 46.05460761 16.2068758 45.95356762 C17.42004475 45.94857251 18.63321369 45.94357739 19.88314533 45.93843091 C21.75268879 45.92272046 21.75268879 45.92272046 23.6600008 45.90669262 C26.64095783 46.13374341 26.64095783 46.13374341 28.64095783 48.13374341 C29.8853045 52.40912797 29.75923121 56.72408785 29.74642658 61.13764966 C29.75987301 62.69821044 29.7748944 64.25875831 29.79134846 65.81929028 C29.81423611 68.2643311 29.82839878 70.70789547 29.81600666 73.15303051 C29.80719984 75.5239703 29.83604015 77.89201051 29.87142658 80.26264966 C29.85919559 80.99190152 29.84696461 81.72115338 29.83436298 82.47250378 C29.8270876 84.81878426 29.8270876 84.81878426 30.64095783 88.13374341 C33.4670108 90.58634838 33.4670108 90.58634838 36.64095783 92.13374341 C40.16408482 95.53538326 40.51960296 99.41957351 40.64095783 104.13374341 C40.20345783 107.13374341 40.20345783 107.13374341 39.64095783 109.13374341 C37.66095783 108.14374341 37.66095783 108.14374341 35.64095783 107.13374341 C35.86783283 106.26749341 36.09470783 105.40124341 36.32845783 104.50874341 C36.71001411 100.38793558 35.83916833 98.58807418 33.64095783 95.13374341 C32.15595783 94.14374341 32.15595783 94.14374341 30.64095783 93.13374341 C30.14595783 99.07374341 30.14595783 99.07374341 29.64095783 105.13374341 C30.30095783 105.46374341 30.96095783 105.79374341 31.64095783 106.13374341 C29.66095783 106.13374341 27.68095783 106.13374341 25.64095783 106.13374341 C25.31095783 87.65374341 24.98095783 69.17374341 24.64095783 50.13374341 C-7.03904217 49.63874341 -7.03904217 49.63874341 -39.35904217 49.13374341 C-39.35904217 83.45374341 -39.35904217 117.77374341 -39.35904217 153.13374341 C-26.98404217 152.63874341 -26.98404217 152.63874341 -14.35904217 152.13374341 C-4.35904217 155.13374341 -4.35904217 155.13374341 -1.35904217 157.13374341 C-1.35904217 157.79374341 -1.35904217 158.45374341 -1.35904217 159.13374341 C1.28095783 159.46374341 3.92095783 159.79374341 6.64095783 160.13374341 C6.72345783 159.01999341 6.80595783 157.90624341 6.89095783 156.75874341 C7.64095783 153.13374341 7.64095783 153.13374341 9.70345783 151.69624341 C10.34283283 151.51061841 10.98220783 151.32499341 11.64095783 151.13374341 C11.64095783 151.79374341 11.64095783 152.45374341 11.64095783 153.13374341 C16.59095783 152.80374341 21.54095783 152.47374341 26.64095783 152.13374341 C26.64095783 153.45374341 26.64095783 154.77374341 26.64095783 156.13374341 C25.52076252 156.14792309 24.40056721 156.16210278 23.24642658 156.17671216 C21.77372915 156.22361335 20.30107415 156.27186074 18.82845783 156.32124341 C18.09046955 156.32704419 17.35248127 156.33284497 16.59212971 156.33882153 C14.14531121 156.38690856 14.14531121 156.38690856 10.64095783 157.13374341 C8.76706476 159.55753549 8.76706476 159.55753549 7.64095783 162.13374341 C3.69032115 162.7221361 1.03165877 162.2203286 -2.35904217 160.13374341 C-4.84403989 172.55873201 -3.35904217 185.46269153 -3.35904217 198.13374341 C61.32095783 198.13374341 126.00095783 198.13374341 192.64095783 198.13374341 C192.64095783 183.94374341 192.64095783 169.75374341 192.64095783 155.13374341 C193.63095783 154.80374341 194.62095783 154.47374341 195.64095783 154.13374341 C195.64095783 169.64374341 195.64095783 185.15374341 195.64095783 201.13374341 C178.82849756 201.3058322 162.01604074 201.47457675 145.20345783 201.63374341 C143.32235813 201.65155928 143.32235813 201.65155928 141.40325642 201.66973507 C104.98206775 202.01235252 68.56381712 202.22868055 32.14095783 202.19624341 C31.17258614 202.19538739 30.20421444 202.19453137 29.20649815 202.19364941 C17.68462985 202.18267122 6.16279357 202.16327799 -5.35904217 202.13374341 C-7.61232063 194.74559469 -7.61232063 194.74559469 -7.58609295 190.85078442 C-7.58594189 190.09052456 -7.58579082 189.33026471 -7.58563519 188.54696667 C-7.57531261 187.75189206 -7.56499004 186.95681744 -7.55435467 186.13764966 C-7.55152477 185.30410458 -7.54869488 184.47055951 -7.54577923 183.61175549 C-7.53466506 180.97309981 -7.50957731 178.33479493 -7.48404217 175.69624341 C-7.47400102 173.89742021 -7.46487716 172.09859165 -7.45669842 170.29975903 C-7.43475452 165.91095385 -7.40028603 161.52240792 -7.35904217 157.13374341 C-8.84283367 157.09615918 -8.84283367 157.09615918 -10.35660076 157.05781567 C-14.02063621 156.96376553 -17.68448101 156.86353912 -21.34829998 156.76142895 C-22.93516873 156.718071 -24.5220844 156.67639654 -26.10904217 156.63642895 C-28.38783196 156.57874709 -30.66638539 156.51504702 -32.94497967 156.45014966 C-33.65649181 156.43343716 -34.36800396 156.41672467 -35.10107708 156.39950573 C-40.13129875 156.24761511 -40.13129875 156.24761511 -42.35904217 155.13374341 C-43.3164883 152.35006346 -43.48452908 149.7652266 -43.48602581 146.83856213 C-43.48884563 145.98756939 -43.49166546 145.13657666 -43.49457073 144.25979626 C-43.4925465 143.33446591 -43.49052227 142.40913556 -43.4884367 141.45576489 C-43.49018902 140.47488904 -43.49194134 139.49401318 -43.49374676 138.48341382 C-43.49814877 135.24053694 -43.49523328 131.99771458 -43.49185467 128.75483716 C-43.49252813 126.50329591 -43.4934985 124.25175474 -43.49475384 122.00021374 C-43.49622853 117.28177713 -43.49408337 112.56335945 -43.48941326 107.84492505 C-43.48371285 101.78966243 -43.48699841 95.73444412 -43.49298573 89.67918313 C-43.4965947 85.03045325 -43.49545125 80.38173392 -43.49285793 75.73300374 C-43.49218977 73.49982268 -43.49301325 71.26664068 -43.49533749 69.03346074 C-43.49786984 65.91639037 -43.49401525 62.79939235 -43.4884367 59.68232739 C-43.49046093 58.75497281 -43.49248516 57.82761822 -43.49457073 56.87216198 C-43.49175091 56.02398907 -43.48893108 55.17581616 -43.48602581 54.30194104 C-43.48564878 53.56509296 -43.48527176 52.82824488 -43.48488331 52.06906807 C-43.35904217 50.13374341 -43.35904217 50.13374341 -42.35904217 47.13374341 C-39.29309623 45.60077043 -36.08792364 46.01242886 -32.72622967 46.03608716 C-31.59847622 46.03820958 -31.59847622 46.03820958 -30.44793987 46.04037488 C-28.04326707 46.04597875 -25.6386869 46.05853184 -23.23404217 46.07124341 C-21.60513726 46.07625791 -19.9762309 46.0808209 -18.34732342 46.08491528 C-14.3511939 46.09594944 -10.35513375 46.11321662 -6.35904217 46.13374341 C-6.36126278 45.57220059 -6.36348339 45.01065777 -6.36577129 44.43209851 C-6.38782523 38.60893906 -6.40294921 32.78579139 -6.41397381 26.96260083 C-6.41901524 24.78681468 -6.42584824 22.61103194 -6.43448162 20.43525708 C-6.44655555 17.31521274 -6.45227221 14.19521302 -6.45669842 11.07514966 C-6.4618597 10.09599087 -6.46702099 9.11683209 -6.47233868 8.10800183 C-6.47241421 7.20714352 -6.47248974 6.30628521 -6.47256756 5.37812817 C-6.47478817 4.58092862 -6.47700878 3.78372906 -6.47929668 2.96237195 C-6.21788117 -1.01279578 -3.30452104 0.01234484 0 0 Z " fill="#170C24" transform="translate(68.35904216766357,24.866256594657898)"/>
<path d="M0 0 C2.96912882 1.38980498 4.69657028 2.69657028 7 5 C7 5.99 7 6.98 7 8 C8.52211704 8 10.04248679 7.8925007 11.5625 7.8125 C17.1210826 7.8324949 21.99825312 8.99825312 26 13 C27.55620354 17.66861062 27.67754336 22.13466204 27 27 C25.73339467 29.04291182 24.40113616 31.04690112 23 33 C22.38106296 35.9907038 22.13546981 38.95192925 22 42 C20.02 42.495 20.02 42.495 18 43 C17.14308359 46.42766564 16.98825503 48.62751675 18 52 C18 55.73361842 17.33261967 58.50980564 16 62 C13.375 63.4375 13.375 63.4375 11 64 C9.4375 63 9.4375 63 8 61 C8.03273548 58.23385218 8.50595672 55.73969453 9 53 C8.01 53.495 8.01 53.495 7 54 C4.87610306 54.07155987 2.74999347 54.0839887 0.625 54.0625 C-1.08816406 54.04896484 -1.08816406 54.04896484 -2.8359375 54.03515625 C-3.88007812 54.02355469 -4.92421875 54.01195312 -6 54 C-7.32 54 -8.64 54 -10 54 C-10.33 56.31 -10.66 58.62 -11 61 C-13.64 60.67 -16.28 60.34 -19 60 C-19 59.34 -19 58.68 -19 58 C-19.64066406 57.82984375 -20.28132813 57.6596875 -20.94140625 57.484375 C-26.50365317 55.92595112 -31.11323714 54.08078528 -36 51 C-34.58901476 42.54959388 -30.78404422 35.01659819 -26 28 C-24.86896744 25.37663282 -23.93618686 22.69776924 -23 20 C-22.33933281 18.33094605 -21.67561748 16.6630584 -21 15 C-20.34 15 -19.68 15 -19 15 C-18.896875 14.29875 -18.79375 13.5975 -18.6875 12.875 C-17.54713051 8.10618215 -16.04118775 4.94202701 -12.375 1.625 C-8.07692942 -0.44444139 -4.69027336 -0.73555948 0 0 Z " fill="#759DCC" transform="translate(86,124)"/>
<path d="M0 0 C1 1 1 1 1.3125 4.5625 C1.25326856 9.25870685 -0.14869137 13.25105717 -3 17 C-5.140625 18.2265625 -5.140625 18.2265625 -7 19 C-6.37730929 15.01477946 -5.10957134 11.49428618 -3.62109375 7.76953125 C-2.88960489 5.99803912 -2.88960489 5.99803912 -3 4 C-13.0848552 4.45840251 -21.87459353 10.19847564 -29 17 C-28.69509369 18.9454864 -28.69509369 18.9454864 -28 21 C-27.13375 21.598125 -26.2675 22.19625 -25.375 22.8125 C-23 25 -23 25 -22.5625 28.1875 C-23.62073244 33.02660174 -27.72109303 35.4952312 -31.34765625 38.5234375 C-36.53251003 43.36467063 -41.55429293 50.27988903 -42.23828125 57.5234375 C-42.45155837 63.61501402 -42.45155837 63.61501402 -40.125 69.125 C-36.4785473 72.34245827 -33.64771479 72.48096808 -28.8984375 72.37890625 C-14.68420063 70.52071086 -4.63309723 57.57129585 4.0625 47.25 C6.43983439 44.44750002 8.29673384 42.82294804 12 42 C15 42 15 42 17 43 C17.40729228 45.32156597 17.74438677 47.6568787 18 50 C23.38664268 48.75692861 26.85977438 45.98375599 31.046875 42.55859375 C34.71085965 39.634734 37.37658099 39.91438113 42 40 C42.495 41.98 42.495 41.98 43 44 C41.68 44.33 40.36 44.66 39 45 C39 44.34 39 43.68 39 43 C37.02 43.66 35.04 44.32 33 45 C33.26676204 46.98491642 33.26676204 46.98491642 34 49 C38.32501107 50.44167036 41.09082067 48.40927422 45 46.5625 C46.43518291 45.89215211 47.87260789 45.22657819 49.3125 44.56640625 C50.26576172 44.11696655 50.26576172 44.11696655 51.23828125 43.65844727 C53 43 53 43 56 43 C55.67 45.31 55.34 47.62 55 50 C59.1875237 49.07874479 62.01814899 48.24144072 65.25 45.375 C68 43 68 43 71 43 C71 44.98 71 46.96 71 49 C71.75925781 48.6390625 72.51851563 48.278125 73.30078125 47.90625 C74.29464844 47.4421875 75.28851563 46.978125 76.3125 46.5 C77.29863281 46.0359375 78.28476563 45.571875 79.30078125 45.09375 C82 44 82 44 85 44 C84.86328125 45.81640625 84.86328125 45.81640625 84 48 C81.41796875 49.52734375 81.41796875 49.52734375 78.1875 50.9375 C73.47963982 52.99611365 70.70162944 54.56932772 68 59 C66.12841957 63.8887834 64.67581021 68.90943253 63.17578125 73.921875 C60.97593577 80.93333468 58.30360357 87.69639643 53 93 C51.00041636 93.04080783 48.99954746 93.04254356 47 93 C44.61247012 84.04676296 48.98862653 76.54276588 53.3125 68.8125 C56.03194275 64.28009542 59.02110934 60.39600914 62.71484375 56.62109375 C64.31061741 54.95297319 64.31061741 54.95297319 64 52 C62.948125 52.495 62.948125 52.495 61.875 53 C58.73996884 54.09044562 56.29436818 54.15322643 53 54 C52.01 51.525 52.01 51.525 51 49 C46.82098918 50.36779087 42.81879771 51.80213081 39 54 C38.01047282 57.5082547 38.01047282 57.5082547 38 61 C34.62981157 64.12946069 32.72839055 64.95300706 28.125 65.25 C27.09375 65.1675 26.0625 65.085 25 65 C24.28515625 63.265625 24.28515625 63.265625 24 61 C25.43359375 58.859375 25.43359375 58.859375 27.4375 56.75 C28.09621094 56.04359375 28.75492187 55.3371875 29.43359375 54.609375 C29.95050781 54.07828125 30.46742188 53.5471875 31 53 C29.515 52.01 29.515 52.01 28 51 C27.154375 51.495 26.30875 51.99 25.4375 52.5 C21.61997752 54.16582799 19.12108352 54.39625803 15 54 C14.34 53.34 13.68 52.68 13 52 C12.01 52.66 11.02 53.32 10 54 C7.375 54.1875 7.375 54.1875 5 54 C4.67 53.67 4.34 53.34 4 53 C3.46632812 53.70125 2.93265625 54.4025 2.3828125 55.125 C-5.98445114 65.77950872 -15.60341612 75.18492385 -29.55078125 77.40625 C-34.38058903 77.60106578 -37.92429801 76.74872925 -42 74 C-46.51736032 69.11636722 -47.36205044 65.21985055 -47.27734375 58.75390625 C-46.08896095 46.95376715 -37.95725299 38.64927923 -29.7578125 30.8828125 C-27.77252456 29.18565313 -27.77252456 29.18565313 -28 27 C-28.804375 26.4225 -29.60875 25.845 -30.4375 25.25 C-33 23 -33 23 -34.0625 20.125 C-33.98011606 16.00580298 -32.88661364 13.8031453 -30 11 C-21.46973851 4.63351216 -10.95079386 -2.43350975 0 0 Z M10 46 C9.67 47.32 9.34 48.64 9 50 C9.66 48.68 10.32 47.36 11 46 C10.67 46 10.34 46 10 46 Z M32 57 C30.29467677 58.94009522 30.29467677 58.94009522 29 61 C30.94074861 60.72382467 30.94074861 60.72382467 33 60 C33.66 59.01 34.32 58.02 35 57 C34.01 57 33.02 57 32 57 Z M61 64 C55.49339456 71.60229518 49.57129573 80.29413524 50 90 C54.46858986 86.10898298 56.34246679 82.55851074 58.25 77 C58.50523437 76.30132812 58.76046875 75.60265625 59.0234375 74.8828125 C60.31335226 71.28462923 61.37912264 67.78439533 62 64 C61.67 64 61.34 64 61 64 Z " fill="#0E0E0D" transform="translate(170,88)"/>
<path d="M0 0 C10.539375 -0.020625 21.07875 -0.04125 31.9375 -0.0625 C36.93571899 -0.07615601 36.93571899 -0.07615601 42.03491211 -0.09008789 C44.65738891 -0.09300675 47.27986616 -0.09555538 49.90234375 -0.09765625 C50.58808975 -0.10026962 51.27383575 -0.102883 51.98036194 -0.10557556 C53.99072139 -0.11285634 56.00110198 -0.1133384 58.01147461 -0.11352539 C59.14620712 -0.115746 60.28093964 -0.11796661 61.45005798 -0.12025452 C64 0 64 0 65 1 C65.09365006 2.7492872 65.11744438 4.50236254 65.11352539 6.25415039 C65.11341209 7.93578026 65.11341209 7.93578026 65.11329651 9.65138245 C65.10813522 10.8711528 65.10297394 12.09092316 65.09765625 13.34765625 C65.0962413 14.58921982 65.09482635 15.83078339 65.09336853 17.10997009 C65.08870591 20.41605491 65.07971497 23.72207146 65.06866455 27.02813721 C65.05844827 30.3996115 65.05387045 33.77109283 65.04882812 37.14257812 C65.03777395 43.76173775 65.02101736 50.38086493 65 57 C66.258125 56.79375 67.51625 56.5875 68.8125 56.375 C72.4014758 55.78664331 72.75073878 55.83382585 76 58 C72.24713079 59.2509564 68.94020864 59 65 59 C63.515 59.495 63.515 59.495 62 60 C62 59.34 62 58.68 62 58 C62.66 58 63.32 58 64 58 C62.08421959 54.36001723 60.83952691 52.51233164 57 51 C52.83535043 50.43542603 49.190995 50.26708 45.5625 52.5 C45.046875 52.995 44.53125 53.49 44 54 C43.34 54 42.68 54 42 54 C41.71125 54.886875 41.4225 55.77375 41.125 56.6875 C40.16851252 59.50382424 39.13201054 62.25083156 38 65 C37.34 65 36.68 65 36 65 C35.88398437 65.70125 35.76796875 66.4025 35.6484375 67.125 C34.9395283 70.26811551 33.87459037 73.0312762 32.625 76 C32.20476563 77.010625 31.78453125 78.02125 31.3515625 79.0625 C30.06693851 81.85451514 28.61021865 84.38600868 27 87 C26.08314269 88.67617012 25.18681682 90.36375231 24.3125 92.0625 C23.87550781 92.89910156 23.43851563 93.73570312 22.98828125 94.59765625 C21.7463685 97.18358797 21.7463685 97.18358797 22 101 C22.66 101.66 23.32 102.32 24 103 C16.83837387 106.58081307 8.00694143 104 0 104 C0 69.68 0 35.36 0 0 Z M5 6 C4.90476095 8.89143151 4.87446973 11.75892064 4.88647461 14.65063477 C4.88632858 15.55786285 4.88618256 16.46509094 4.8860321 17.39981079 C4.88673159 20.41369985 4.89452566 23.42752793 4.90234375 26.44140625 C4.9042078 28.52505967 4.90563176 30.60871354 4.90663147 32.69236755 C4.91045766 38.18823446 4.9202888 43.68407513 4.93133545 49.17993164 C4.9415474 54.78336227 4.94612863 60.38679713 4.95117188 65.99023438 C4.96191098 76.99350114 4.97898861 87.99674839 5 99 C9.62 99 14.24 99 19 99 C19 97.68 19 96.36 19 95 C19.66 95 20.32 95 21 95 C21.67354499 93.56570999 22.33859701 92.12742943 23 90.6875 C23.37125 89.88699219 23.7425 89.08648437 24.125 88.26171875 C25.18040667 85.93786041 25.18040667 85.93786041 25 83 C25.66 83 26.32 83 27 83 C27.33 80.69 27.66 78.38 28 76 C28.66 76 29.32 76 30 76 C30.32613281 75.13117188 30.65226562 74.26234375 30.98828125 73.3671875 C31.42527344 72.21476562 31.86226562 71.06234375 32.3125 69.875 C32.74175781 68.73804688 33.17101562 67.60109375 33.61328125 66.4296875 C35 63 35 63 36.66796875 59.6953125 C38.1476837 57.20225051 38.1476837 57.20225051 38 55 C38.66 55 39.32 55 40 55 C41.70884005 53.37660195 43.37446717 51.70680947 45 50 C47 48 47 48 50.875 47.6875 C54.36637576 47.35227733 54.80263028 47.2077576 57.375 44.5 C57.91125 43.675 58.4475 42.85 59 42 C59.66 41.67 60.32 41.34 61 41 C61.02465098 36.03377651 61.04283649 31.06758834 61.05493164 26.10131836 C61.0599719 24.41055684 61.06680405 22.71979971 61.07543945 21.02905273 C61.08751857 18.60399293 61.09323123 16.17899056 61.09765625 13.75390625 C61.10281754 12.99348526 61.10797882 12.23306427 61.11329651 11.44960022 C61.11349238 9.6326743 61.06197277 7.81586873 61 6 C59.31987658 4.31987658 57.24912808 4.87252661 54.9453125 4.87060547 C53.86749512 4.86745331 52.78967773 4.86430115 51.67919922 4.86105347 C50.50631348 4.8630777 49.33342773 4.86510193 48.125 4.8671875 C46.9302002 4.86623077 45.73540039 4.86527405 44.50439453 4.86428833 C41.9723302 4.86360629 39.44026412 4.86546222 36.90820312 4.86962891 C33.0168874 4.87497679 29.12568711 4.86968467 25.234375 4.86328125 C22.78124974 4.86394203 20.32812456 4.86522318 17.875 4.8671875 C16.70211426 4.86516327 15.52922852 4.86313904 14.32080078 4.86105347 C12.70407471 4.86578171 12.70407471 4.86578171 11.0546875 4.87060547 C9.62358643 4.87179886 9.62358643 4.87179886 8.16357422 4.87301636 C6.02012111 4.75839152 6.02012111 4.75839152 5 6 Z " fill="#4C341E" transform="translate(29,74)"/>
<path d="M0 0 C0.66 0 1.32 0 2 0 C2 34.32 2 68.64 2 104 C14.375 103.505 14.375 103.505 27 103 C37 106 37 106 40 108 C40 108.66 40 109.32 40 110 C42.64 110.33 45.28 110.66 48 111 C48.0825 109.88625 48.165 108.7725 48.25 107.625 C49 104 49 104 51.0625 102.5625 C51.701875 102.376875 52.34125 102.19125 53 102 C53 102.66 53 103.32 53 104 C57.95 103.67 62.9 103.34 68 103 C68 104.32 68 105.64 68 107 C66.87980469 107.01417969 65.75960937 107.02835937 64.60546875 107.04296875 C63.13277131 107.08986994 61.66011632 107.13811734 60.1875 107.1875 C59.44951172 107.19330078 58.71152344 107.19910156 57.95117188 107.20507812 C55.50435338 107.25316515 55.50435338 107.25316515 52 108 C50.12610693 110.42379208 50.12610693 110.42379208 49 113 C45.04936331 113.5883927 42.39070093 113.08658519 39 111 C36.51500228 123.42498861 38 136.32894813 38 149 C102.68 149 167.36 149 234 149 C234 134.81 234 120.62 234 106 C234.99 105.67 235.98 105.34 237 105 C237 120.51 237 136.02 237 152 C220.18753973 152.17208879 203.37508291 152.34083335 186.5625 152.5 C184.6814003 152.51781588 184.6814003 152.51781588 182.76229858 152.53599167 C146.34110992 152.87860912 109.92285928 153.09493715 73.5 153.0625 C72.5316283 153.06164398 71.56325661 153.06078796 70.56554031 153.05990601 C59.04367201 153.04892781 47.52183573 153.02953458 36 153 C33.74672154 145.61185128 33.74672154 145.61185128 33.77294922 141.71704102 C33.77310028 140.95678116 33.77325134 140.1965213 33.77340698 139.41322327 C33.78372955 138.61814865 33.79405212 137.82307404 33.8046875 137.00390625 C33.8075174 136.17036118 33.81034729 135.3368161 33.81326294 134.47801208 C33.82437711 131.8393564 33.84946485 129.20105152 33.875 126.5625 C33.88504115 124.76367681 33.89416501 122.96484825 33.90234375 121.16601562 C33.92428765 116.77721045 33.95875613 112.38866452 34 108 C32.5162085 107.96241577 32.5162085 107.96241577 31.00244141 107.92407227 C27.33840596 107.83002213 23.67456115 107.72979571 20.01074219 107.62768555 C18.42387343 107.58432759 16.83695776 107.54265313 15.25 107.50268555 C12.97121021 107.44500368 10.69265678 107.38130362 8.4140625 107.31640625 C7.70255035 107.29969376 6.99103821 107.28298126 6.25796509 107.26576233 C1.22774341 107.11387171 1.22774341 107.11387171 -1 106 C-0.67 71.02 -0.34 36.04 0 0 Z " fill="#190E2A" transform="translate(27,74)"/>
<path d="M0 0 C2.31050708 3.46576061 2.1670818 4.36881959 1.75 8.375 C1.66234375 9.31085938 1.5746875 10.24671875 1.484375 11.2109375 C0.99414555 14.03371028 0.15886084 16.38781367 -1 19 C-1.99 19 -2.98 19 -4 19 C-3.67 14.05 -3.34 9.1 -3 4 C-8.9121381 5.24950638 -13.60840509 7.08553109 -18.8125 10.125 C-19.84963135 10.72006348 -19.84963135 10.72006348 -20.90771484 11.32714844 C-26.90464201 14.82593584 -32.52942538 18.7231762 -38 23 C-38.62648438 23.47308594 -39.25296875 23.94617188 -39.8984375 24.43359375 C-43.07453505 26.92024573 -45.4116106 29.26261317 -47 33 C-47.01453953 35.67975596 -47.01453953 35.67975596 -46 38 C-41.53063719 40.97957521 -37.58626256 41.0805929 -32.27587891 41.29077148 C-17.09703527 41.90296473 -17.09703527 41.90296473 -12 47 C-11.15861335 54.15178654 -13.7573278 57.96636384 -17.81640625 63.45703125 C-23.75355365 70.37131203 -33.2273753 77.17069902 -42.48828125 78.3046875 C-44.74008604 78.36933261 -46.78341625 78.40301523 -49 78 C-51 76 -51 76 -51.375 73.1875 C-50.90914205 69.22770741 -49.83732784 67.76064331 -47 65 C-44.25 63.6875 -44.25 63.6875 -42 63 C-41.67 63.66 -41.34 64.32 -41 65 C-43.31 67.97 -45.62 70.94 -48 74 C-36.54161245 73.62431516 -28.7152065 68.3313067 -20.875 60.24609375 C-17.26052727 56.01538104 -17.26052727 56.01538104 -15.9375 50.8125 C-17.61300594 47.95428398 -19.8706236 47.84460678 -23 47 C-25.4117893 46.7882985 -27.83037831 46.64602251 -30.25 46.5625 C-37.75777894 46.12694547 -44.7560093 45.71589919 -50.6875 40.75 C-52.5530722 36.84118205 -52.31235675 35.14428449 -51 31 C-42.97792283 16.96136495 -16.94861809 -2.46525354 0 0 Z " fill="#100D12" transform="translate(305,87)"/>
<path d="M0 0 C3.97420335 1.99867702 6.53668287 4.3050243 9 8 C9.54671313 11.71764931 9.55052947 15.2825634 9 19 C6.625 22 6.625 22 4 24 C3.34 24.99 2.68 25.98 2 27 C2.66 27 3.32 27 4 27 C4 28.65 4 30.3 4 32 C2.35 32 0.7 32 -1 32 C-1 38.6 -1 45.2 -1 52 C-3.475 52.495 -3.475 52.495 -6 53 C-6 46.07 -6 39.14 -6 32 C-7.98 32 -9.96 32 -12 32 C-12 30.35 -12 28.7 -12 27 C-11.01 27 -10.02 27 -9 27 C-9 26.34 -9 25.68 -9 25 C-9.598125 24.773125 -10.19625 24.54625 -10.8125 24.3125 C-13.76738497 22.53956902 -14.64499863 21.18425322 -16 18 C-16.4174609 13.7582991 -16.35159265 10.05477795 -15 6 C-14.01 6 -13.02 6 -12 6 C-12 6.66 -12 7.32 -12 8 C-9.03 8.495 -9.03 8.495 -6 9 C-6 9.66 -6 10.32 -6 11 C-3.47636012 10.37466625 -3.47636012 10.37466625 -1 9 C-0.10613836 6.45224694 -0.10613836 6.45224694 0 4 C-1.65 3.67 -3.3 3.34 -5 3 C-5 3.66 -5 4.32 -5 5 C-6.98 5 -8.96 5 -11 5 C-11.33 4.34 -11.66 3.68 -12 3 C-11.34 3 -10.68 3 -10 3 C-10 2.34 -10 1.68 -10 1 C-6.75859402 -0.62070299 -3.50303137 -0.57437091 0 0 Z " fill="#C2DAEB" transform="translate(102,132)"/>
<path d="M0 0 C0.97608217 2.92824652 1.08226668 4.95613276 1 8 C6.63374328 6.7848789 8.95629002 5.26836053 13 1 C13.99 1 14.98 1 16 1 C15.67 3.31 15.34 5.62 15 8 C19.1875237 7.07874479 22.01814899 6.24144072 25.25 3.375 C28 1 28 1 31 1 C31 3.31 31 5.62 31 8 C31.76183594 7.47599609 31.76183594 7.47599609 32.5390625 6.94140625 C36.69405656 4.19475288 39.90884805 2.3818364 45 2 C44.8671875 3.80859375 44.8671875 3.80859375 44 6 C41.3828125 7.59765625 41.3828125 7.59765625 38.125 9.0625 C31.96320972 11.70402863 31.96320972 11.70402863 28.17211914 16.92602539 C27.96192139 17.64266357 27.75172363 18.35930176 27.53515625 19.09765625 C27.17454102 20.29310059 27.17454102 20.29310059 26.80664062 21.51269531 C26.56107422 22.35413086 26.31550781 23.19556641 26.0625 24.0625 C25.53491758 25.78848525 25.00498995 27.51375548 24.47265625 29.23828125 C24.21887207 30.06408691 23.96508789 30.88989258 23.70361328 31.74072266 C21.45564352 38.958874 19.13054101 46.12700586 13 51 C10.1875 51.5 10.1875 51.5 8 51 C7 50 7 50 6.6875 46.0625 C6.88346475 33.65793143 15.4286402 22.25204797 23.71484375 13.65625 C25.30651861 11.95436892 25.30651861 11.95436892 25 9 C24.13375 9.495 23.2675 9.99 22.375 10.5 C18.89250377 12.0477761 16.75240542 12.26802896 13 12 C12.67 11.01 12.34 10.02 12 9 C11.175 9.495 10.35 9.99 9.5 10.5 C5.18031462 12.35129373 2.65590566 12.38799214 -2 12 C-2.66 11.34 -3.32 10.68 -4 10 C-4.66 10.66 -5.32 11.32 -6 12 C-8.5625 12.1875 -8.5625 12.1875 -11 12 C-11.33 11.67 -11.66 11.34 -12 11 C-11.84446201 6.87824339 -11.60626274 4.67554991 -8.8125 1.5625 C-5.58823227 -0.22875985 -3.63195497 -0.33785628 0 0 Z M-7 5 C-7 5.99 -7 6.98 -7 8 C-6.34 7.01 -5.68 6.02 -5 5 C-5.66 5 -6.32 5 -7 5 Z M21 23 C15.3759136 29.93784936 10 37.82866679 10 47 C12.69614338 45.98679962 13.83582064 45.26371019 15.37890625 42.78515625 C18.19686228 36.30292737 20.36360074 29.87819851 22 23 C21.67 23 21.34 23 21 23 Z " fill="#0C0C0A" transform="translate(322,130)"/>
<path d="M0 0 C10.539375 -0.020625 21.07875 -0.04125 31.9375 -0.0625 C36.93571899 -0.07615601 36.93571899 -0.07615601 42.03491211 -0.09008789 C44.65738891 -0.09300675 47.27986616 -0.09555538 49.90234375 -0.09765625 C50.58808975 -0.10026962 51.27383575 -0.102883 51.98036194 -0.10557556 C53.99072139 -0.11285634 56.00110198 -0.1133384 58.01147461 -0.11352539 C59.14620712 -0.115746 60.28093964 -0.11796661 61.45005798 -0.12025452 C64 0 64 0 65 1 C65.08865208 3.8843382 65.11521296 6.74462158 65.09765625 9.62890625 C65.0962413 10.49313705 65.09482635 11.35736786 65.09336853 12.24778748 C65.08775239 15.01939292 65.07519719 17.7909188 65.0625 20.5625 C65.05748708 22.4368478 65.05292381 24.31119685 65.04882812 26.18554688 C65.03777772 30.79039544 65.0205023 35.39518421 65 40 C64.34 40 63.68 40 63 40 C62.97494385 38.94498291 62.9498877 37.88996582 62.92407227 36.80297852 C62.83015891 32.90229372 62.72989966 29.00179375 62.62768555 25.10131836 C62.58427561 23.41060701 62.54260511 21.71985009 62.50268555 20.02905273 C62.44512906 17.60386394 62.38139351 15.17890585 62.31640625 12.75390625 C62.29969376 11.99348526 62.28298126 11.23306427 62.26576233 10.44960022 C62.47908732 6.92917969 62.47908732 6.92917969 61 4 C59.18944975 3.90623947 57.37522799 3.8825589 55.56225586 3.88647461 C54.40112778 3.88655014 53.23999969 3.88662567 52.04368591 3.88670349 C50.780168 3.89186478 49.51665009 3.89702606 48.21484375 3.90234375 C46.28591026 3.90446617 46.28591026 3.90446617 44.31800842 3.90663147 C40.89356557 3.91045582 37.46916491 3.92028538 34.04473877 3.93133545 C30.55261811 3.94155136 27.06049066 3.94612947 23.56835938 3.95117188 C16.71222222 3.96190773 9.85611313 3.97898316 3 4 C3.10732434 16.36924817 3.21992108 28.73843584 3.33933926 41.10757351 C3.39461613 46.8504229 3.4480436 52.59327733 3.49731445 58.33618164 C3.5448879 63.8734452 3.59722789 69.41064467 3.65294075 74.94783211 C3.67339622 77.06542436 3.69210389 79.18303422 3.70907402 81.30065727 C3.73304763 84.25576039 3.76311143 87.21074114 3.79467773 90.16577148 C3.8004332 91.05049637 3.80618866 91.93522125 3.81211853 92.84675598 C3.47803152 96.73699879 3.47803152 96.73699879 5 100 C7.52596259 100.23653523 10.03107207 100.42173692 12.5625 100.5625 C13.27341797 100.60568359 13.98433594 100.64886719 14.71679688 100.69335938 C16.47761912 100.79971777 18.2387832 100.90038846 20 101 C20.33 101.99 20.66 102.98 21 104 C14.07 104 7.14 104 0 104 C0 69.68 0 35.36 0 0 Z " fill="#AA7141" transform="translate(29,74)"/>
<path d="M0 0 C2.5625 0.1875 2.5625 0.1875 4.5625 2.1875 C4.6875 5.3125 4.6875 5.3125 4.5625 8.1875 C5.2225 8.1875 5.8825 8.1875 6.5625 8.1875 C6.8925 8.8475 7.2225 9.5075 7.5625 10.1875 C10.59184491 10.84522428 10.59184491 10.84522428 13.5625 11.1875 C13.5625 10.5275 13.5625 9.8675 13.5625 9.1875 C16.0375 9.6825 16.0375 9.6825 18.5625 10.1875 C18.6875 12.5625 18.6875 12.5625 18.5625 15.1875 C17.9025 15.8475 17.2425 16.5075 16.5625 17.1875 C15.2425 17.1875 13.9225 17.1875 12.5625 17.1875 C12.5625 16.5275 12.5625 15.8675 12.5625 15.1875 C9.5925 14.6925 9.5925 14.6925 6.5625 14.1875 C6.5625 13.5275 6.5625 12.8675 6.5625 12.1875 C5.5725 12.1875 4.5825 12.1875 3.5625 12.1875 C3.48089252 14.08260699 3.42303541 15.97874504 3.375 17.875 C3.34019531 18.93074219 3.30539063 19.98648438 3.26953125 21.07421875 C3.60186945 24.60586599 4.44571504 26.37005429 6.5625 29.1875 C7.5525 29.8475 8.5425 30.5075 9.5625 31.1875 C9.5625 31.8475 9.5625 32.5075 9.5625 33.1875 C8.5725 33.1875 7.5825 33.1875 6.5625 33.1875 C6.5625 34.8375 6.5625 36.4875 6.5625 38.1875 C8.5425 38.1875 10.5225 38.1875 12.5625 38.1875 C12.5625 45.1175 12.5625 52.0475 12.5625 59.1875 C14.5425 58.6925 14.5425 58.6925 16.5625 58.1875 C16.55089844 57.24648437 16.53929688 56.30546875 16.52734375 55.3359375 C16.51832031 54.09070313 16.50929688 52.84546875 16.5 51.5625 C16.48839844 50.33273438 16.47679688 49.10296875 16.46484375 47.8359375 C16.55386076 44.51026209 16.92563913 41.44702412 17.5625 38.1875 C19.2125 38.1875 20.8625 38.1875 22.5625 38.1875 C22.5625 36.5375 22.5625 34.8875 22.5625 33.1875 C21.9025 33.1875 21.2425 33.1875 20.5625 33.1875 C21.375 31.25 21.375 31.25 22.5625 29.1875 C23.5525 28.8575 24.5425 28.5275 25.5625 28.1875 C27.10257277 23.5672817 27.21872473 19.00687089 26.5625 14.1875 C24.31192433 11.09951326 24.31192433 11.09951326 21.5625 9.1875 C21.2325 8.5275 20.9025 7.8675 20.5625 7.1875 C23.86732952 7.99534722 26.04533562 8.65309681 28.4375 11.125 C30.15674315 15.8051619 30.24824171 20.26329092 29.5625 25.1875 C28.29589467 27.23041182 26.96363616 29.23440112 25.5625 31.1875 C24.94356296 34.1782038 24.69796981 37.13942925 24.5625 40.1875 C22.5825 40.6825 22.5825 40.6825 20.5625 41.1875 C19.70558359 44.61516564 19.55075503 46.81501675 20.5625 50.1875 C20.5625 53.92111842 19.89511967 56.69730564 18.5625 60.1875 C15.9375 61.625 15.9375 61.625 13.5625 62.1875 C12 61.1875 12 61.1875 10.5625 59.1875 C10.59523548 56.42135218 11.06845672 53.92719453 11.5625 51.1875 C10.5725 51.6825 10.5725 51.6825 9.5625 52.1875 C7.39759805 52.28435088 5.22956197 52.31729438 3.0625 52.3125 C1.31453125 52.31636719 1.31453125 52.31636719 -0.46875 52.3203125 C-3.4375 52.1875 -3.4375 52.1875 -5.4375 51.1875 C-4.10416667 47.1875 -2.77083333 43.1875 -1.4375 39.1875 C-0.7775 39.1875 -0.1175 39.1875 0.5625 39.1875 C1.0575 36.2175 1.0575 36.2175 1.5625 33.1875 C2.2225 33.1875 2.8825 33.1875 3.5625 33.1875 C2.59473902 29.39202079 2.59473902 29.39202079 0.5625 26.1875 C0.46281328 24.08528307 0.43281797 21.97957396 0.4375 19.875 C0.43492188 18.72386719 0.43234375 17.57273438 0.4296875 16.38671875 C0.53811122 13.77498263 0.79190262 11.66442016 1.5625 9.1875 C-0.0875 8.8575 -1.7375 8.5275 -3.4375 8.1875 C-3.47991723 5.85455225 -3.47842937 3.52047433 -3.4375 1.1875 C-2.4375 0.1875 -2.4375 0.1875 0 0 Z " fill="#3E4045" transform="translate(83.4375,125.8125)"/>
<path d="M0 0 C0.66 0 1.32 0 2 0 C2 34.32 2 68.64 2 104 C14.375 103.505 14.375 103.505 27 103 C37 106 37 106 40 108 C40 108.66 40 109.32 40 110 C42.64 110.33 45.28 110.66 48 111 C48.0825 109.88625 48.165 108.7725 48.25 107.625 C49 104 49 104 51.0625 102.5625 C51.701875 102.376875 52.34125 102.19125 53 102 C53 102.66 53 103.32 53 104 C57.95 103.67 62.9 103.34 68 103 C68 104.32 68 105.64 68 107 C66.87980469 107.01417969 65.75960937 107.02835937 64.60546875 107.04296875 C63.13277131 107.08986994 61.66011632 107.13811734 60.1875 107.1875 C59.44951172 107.19330078 58.71152344 107.19910156 57.95117188 107.20507812 C55.50435338 107.25316515 55.50435338 107.25316515 52 108 C50.12610693 110.42379208 50.12610693 110.42379208 49 113 C45.04936331 113.5883927 42.39070093 113.08658519 39 111 C39 110.34 39 109.68 39 109 C38.01 109 37.02 109 36 109 C36 122.86 36 136.72 36 151 C35.67 151 35.34 151 35 151 C33.82935267 146.37817094 33.87202309 141.9306328 33.90234375 137.19921875 C33.9037587 136.36284378 33.90517365 135.52646881 33.90663147 134.66474915 C33.91220816 132.005629 33.92475635 129.3465945 33.9375 126.6875 C33.94251801 124.87955851 33.94708039 123.0716157 33.95117188 121.26367188 C33.96216996 116.84241516 33.9794185 112.42122207 34 108 C32.5162085 107.96241577 32.5162085 107.96241577 31.00244141 107.92407227 C27.33840596 107.83002213 23.67456115 107.72979571 20.01074219 107.62768555 C18.42387343 107.58432759 16.83695776 107.54265313 15.25 107.50268555 C12.97121021 107.44500368 10.69265678 107.38130362 8.4140625 107.31640625 C7.70255035 107.29969376 6.99103821 107.28298126 6.25796509 107.26576233 C1.22774341 107.11387171 1.22774341 107.11387171 -1 106 C-0.67 71.02 -0.34 36.04 0 0 Z " fill="#20160D" transform="translate(27,74)"/>
<path d="M0 0 C0.99 0 1.98 0 3 0 C2.88382356 1.37577361 2.75654223 2.75061045 2.625 4.125 C2.55539062 4.89070313 2.48578125 5.65640625 2.4140625 6.4453125 C2 9 2 9 0 15 C12.21 15 24.42 15 37 15 C37 16.32 37 17.64 37 19 C24.46 19.33 11.92 19.66 -1 20 C-2.629375 25.98125 -4.25875 31.9625 -5.9375 38.125 C-6.45046631 40.00203613 -6.96343262 41.87907227 -7.49194336 43.81298828 C-7.89980855 45.3153668 -8.30745644 46.81780433 -8.71484375 48.3203125 C-8.92564575 49.08851318 -9.13644775 49.85671387 -9.3536377 50.64819336 C-11.85302902 58.7794573 -11.85302902 58.7794573 -11 67 C-12.65 67 -14.3 67 -16 67 C-16.22680573 60.48784057 -15.55655406 55.06562858 -13.8125 48.80859375 C-13.59053955 47.97787857 -13.3685791 47.14716339 -13.13989258 46.29127502 C-12.43705897 43.67039431 -11.71884027 41.05403033 -11 38.4375 C-10.51720052 36.64806368 -10.03541999 34.8583521 -9.5546875 33.06835938 C-8.38339894 28.7083387 -7.1913418 24.35477977 -6 20 C-11.61 19.67 -17.22 19.34 -23 19 C-23 18.01 -23 17.02 -23 16 C-19.69005287 14.34502644 -16.00877 14.89915665 -12.375 14.9375 C-11.17230469 14.94426758 -11.17230469 14.94426758 -9.9453125 14.95117188 C-7.96350994 14.96296832 -5.98174567 14.98090395 -4 15 C-3.79503906 14.08476563 -3.59007812 13.16953125 -3.37890625 12.2265625 C-2.97478516 10.44378906 -2.97478516 10.44378906 -2.5625 8.625 C-2.29566406 7.44164063 -2.02882813 6.25828125 -1.75390625 5.0390625 C-1 2 -1 2 0 0 Z " fill="#0E0D0E" transform="translate(313,93)"/>
<path d="M0 0 C4.47920597 -0.02682159 8.95825351 -0.04675177 13.4375 -0.0625 C14.71689453 -0.07087891 15.99628906 -0.07925781 17.31445312 -0.08789062 C19.13686523 -0.09272461 19.13686523 -0.09272461 20.99609375 -0.09765625 C22.12200928 -0.10289307 23.2479248 -0.10812988 24.40795898 -0.11352539 C27 0 27 0 28 1 C28.07325436 3.6986905 28.09222351 6.36502556 28.0625 9.0625 C28.041875 11.681875 28.02125 14.30125 28 17 C18.76 17 9.52 17 0 17 C0 11.39 0 5.78 0 0 Z " fill="#CF9968" transform="translate(48,97)"/>
<path d="M0 0 C0.99 0.33 1.98 0.66 3 1 C2.67 2.98 2.34 4.96 2 7 C2 18.22 2 29.44 2 41 C66.845 41.495 66.845 41.495 133 42 C133 42.33 133 42.66 133 43 C103.56859477 43.81250252 74.16373033 44.13664859 44.72174072 44.06866455 C39.64392548 44.05813118 34.56610444 44.05380519 29.48828125 44.04882812 C19.65884013 44.03834323 9.8294229 44.02145631 0 44 C-1.15609707 41.68780587 -1.09085101 40.48269304 -1.02172852 37.91748047 C-1.00163223 37.07675995 -0.98153595 36.23603943 -0.96083069 35.36984253 C-0.92027809 34.00727829 -0.92027809 34.00727829 -0.87890625 32.6171875 C-0.84348976 31.22308151 -0.84348976 31.22308151 -0.80735779 29.80081177 C-0.7306391 26.82538894 -0.64665009 23.85022104 -0.5625 20.875 C-0.50928753 18.86068966 -0.45654708 16.84636678 -0.40429688 14.83203125 C-0.27501284 9.88785868 -0.13920707 4.94390273 0 0 Z " fill="#0B0A0B" transform="translate(63,183)"/>
<path d="M0 0 C0.99 0 1.98 0 3 0 C2.99777939 1.21300278 2.99555878 2.42600555 2.99327087 3.67576599 C2.97304128 15.08046604 2.95802874 26.48516248 2.94818783 37.88987637 C2.94295854 43.75382164 2.93586006 49.61775249 2.92456055 55.48168945 C2.9137333 61.13561712 2.90772351 66.78953087 2.90512276 72.44346809 C2.90326821 74.6057361 2.89964705 76.76800331 2.89426994 78.93026543 C2.88706167 81.94758657 2.88600897 84.96484943 2.88647461 87.98217773 C2.88287933 88.8856041 2.87928406 89.78903046 2.87557983 90.71983337 C2.48460545 94.67553903 2.48460545 94.67553903 4 98 C6.34987262 98.23527773 8.70556039 98.41386417 11.0625 98.5625 C12.99802734 98.68818359 12.99802734 98.68818359 14.97265625 98.81640625 C15.97167969 98.87699219 16.97070312 98.93757813 18 99 C18 99.66 18 100.32 18 101 C12.06 101 6.12 101 0 101 C0 67.67 0 34.34 0 0 Z " fill="#D38D52" transform="translate(30,76)"/>
<path d="M0 0 C0.99 0 1.98 0 3 0 C3 1.65 3 3.3 3 5 C5.97 5.99 8.94 6.98 12 8 C14.64341985 17.91282443 14.19255751 27.82407634 14 38 C11.525 38.495 11.525 38.495 9 39 C9 32.07 9 25.14 9 18 C7.02 18 5.04 18 3 18 C3 16.35 3 14.7 3 13 C3.99 13 4.98 13 6 13 C6 12.34 6 11.68 6 11 C5.401875 10.773125 4.80375 10.54625 4.1875 10.3125 C1.35621913 8.61373148 0.35277487 6.99034445 -1 4 C-0.6875 1.6875 -0.6875 1.6875 0 0 Z " fill="#B2C8D8" transform="translate(87,146)"/>
<path d="M0 0 C0.66 0.33 1.32 0.66 2 1 C2 4.3 2 7.6 2 11 C0.68 10.67 -0.64 10.34 -2 10 C-7.98737936 9.43170699 -7.98737936 9.43170699 -13.4375 11.5 C-13.953125 11.995 -14.46875 12.49 -15 13 C-15.66 13 -16.32 13 -17 13 C-17.433125 14.3303125 -17.433125 14.3303125 -17.875 15.6875 C-18.83148748 18.50382424 -19.86798946 21.25083156 -21 24 C-21.66 24 -22.32 24 -23 24 C-23.11601563 24.70125 -23.23203125 25.4025 -23.3515625 26.125 C-24.0604717 29.26811551 -25.12540963 32.0312762 -26.375 35 C-26.79523437 36.010625 -27.21546875 37.02125 -27.6484375 38.0625 C-28.93230436 40.8528696 -30.40373797 43.37995735 -32 46 C-33.27070395 48.58402297 -34.49869197 51.18470367 -35.71875 53.79296875 C-37 56 -37 56 -40 58 C-40 56.68 -40 55.36 -40 54 C-39.34 54 -38.68 54 -38 54 C-37.896875 53.13375 -37.79375 52.2675 -37.6875 51.375 C-36.96601586 47.83316877 -35.72876739 45.15687958 -34 42 C-33.34 42 -32.68 42 -32 42 C-31.67 39.69 -31.34 37.38 -31 35 C-30.34 35 -29.68 35 -29 35 C-28.938125 34.21625 -28.87625 33.4325 -28.8125 32.625 C-27.88205154 28.47376841 -26.23389196 25.20613018 -24.25390625 21.46484375 C-23.01113481 19.02188805 -21.98035868 16.5580522 -21 14 C-20.34 14 -19.68 14 -19 14 C-18.773125 13.4225 -18.54625 12.845 -18.3125 12.25 C-16.5609201 9.2472916 -14.98093817 7.81448411 -12 6 C-9.23853229 5.67210773 -6.79666324 5.81039571 -4 6 C-3.566875 5.071875 -3.566875 5.071875 -3.125 4.125 C-2 2 -2 2 0 0 Z " fill="#574C45" transform="translate(88,115)"/>
<path d="M0 0 C1.32 0.33 2.64 0.66 4 1 C5.07145946 5.34256528 5.11835918 9.56076738 5.10546875 14.00390625 C5.11891518 15.56446703 5.13393656 17.1250149 5.15039062 18.68554688 C5.17327827 21.13058769 5.18744095 23.57415207 5.17504883 26.01928711 C5.166242 28.3902269 5.19508232 30.7582671 5.23046875 33.12890625 C5.21823776 33.85815811 5.20600677 34.58740997 5.19340515 35.33876038 C5.18612976 37.68504085 5.18612976 37.68504085 6 41 C8.82605296 43.45260498 8.82605296 43.45260498 12 45 C15.52312699 48.40163985 15.87864513 52.28583011 16 57 C15.5625 60 15.5625 60 15 62 C13.68 61.34 12.36 60.68 11 60 C11.226875 59.13375 11.45375 58.2675 11.6875 57.375 C12.06905628 53.25419217 11.19821049 51.45433077 9 48 C8.01 47.34 7.02 46.68 6 46 C5.67 49.96 5.34 53.92 5 58 C5.66 58.33 6.32 58.66 7 59 C5.68 59 4.36 59 3 59 C3.00435059 58.01572021 3.00870117 57.03144043 3.01318359 56.01733398 C3.04559345 45.2540552 2.92476223 34.49811731 2.68261719 23.73754883 C2.64362912 21.92741224 2.60891941 20.11717928 2.578125 18.30688477 C2.53277242 15.65352246 2.47488848 13.00070329 2.4140625 10.34765625 C2.40251129 9.53635757 2.39096008 8.7250589 2.37905884 7.88917542 C2.42989046 3.47543629 2.42989046 3.47543629 0 0 Z " fill="#1A0838" transform="translate(93,72)"/>
<path d="M0 0 C0.66209473 -0.00095673 1.32418945 -0.00191345 2.00634766 -0.00289917 C3.40852961 -0.00358076 4.8107147 -0.00172792 6.21289062 0.00244141 C8.36595713 0.00779004 10.51881502 0.0024958 12.671875 -0.00390625 C14.03125046 -0.00324546 15.3906258 -0.00196429 16.75 0 C18.61785156 0.00169189 18.61785156 0.00169189 20.5234375 0.00341797 C23.375 0.1328125 23.375 0.1328125 24.375 1.1328125 C24.47511296 4.12147892 24.51373975 7.08191703 24.5 10.0703125 C24.50580078 11.32618164 24.50580078 11.32618164 24.51171875 12.60742188 C24.51042969 13.40857422 24.50914063 14.20972656 24.5078125 15.03515625 C24.50668457 15.77241943 24.50555664 16.50968262 24.50439453 17.26928711 C24.375 19.1328125 24.375 19.1328125 23.375 21.1328125 C13.475 21.1328125 3.575 21.1328125 -6.625 21.1328125 C-7.76445516 18.85390217 -7.75394214 17.56499146 -7.7578125 15.03515625 C-7.75910156 14.23400391 -7.76039062 13.43285156 -7.76171875 12.60742188 C-7.75785156 11.77017578 -7.75398438 10.93292969 -7.75 10.0703125 C-7.75386719 9.22919922 -7.75773437 8.38808594 -7.76171875 7.52148438 C-7.74949142 -0.06557092 -7.43526945 0.00673485 0 0 Z M-5.625 2.1328125 C-5.625 7.7428125 -5.625 13.3528125 -5.625 19.1328125 C3.615 19.1328125 12.855 19.1328125 22.375 19.1328125 C22.395625 16.5134375 22.41625 13.8940625 22.4375 11.1953125 C22.446604 10.369104 22.45570801 9.54289551 22.46508789 8.69165039 C22.47223945 6.83847491 22.4252852 4.98531942 22.375 3.1328125 C21.30470871 1.83735802 21.30470871 1.83735802 18.78295898 2.01928711 C17.65704346 2.02452393 16.53112793 2.02976074 15.37109375 2.03515625 C13.54868164 2.03999023 13.54868164 2.03999023 11.68945312 2.04492188 C10.41005859 2.05330078 9.13066406 2.06167969 7.8125 2.0703125 C5.88760742 2.07708008 5.88760742 2.07708008 3.92382812 2.08398438 C0.7408658 2.09581695 -2.44207274 2.11375306 -5.625 2.1328125 Z " fill="#5B3F27" transform="translate(53.625,94.8671875)"/>
<path d="M0 0 C0.33 0.66 0.66 1.32 1 2 C5.95 1.67 10.9 1.34 16 1 C16 2.32 16 3.64 16 5 C14.87980469 5.01417969 13.75960937 5.02835938 12.60546875 5.04296875 C11.13277131 5.08986994 9.66011632 5.13811734 8.1875 5.1875 C7.44951172 5.19330078 6.71152344 5.19910156 5.95117188 5.20507812 C3.50435338 5.25316515 3.50435338 5.25316515 0 6 C-1.87389307 8.42379208 -1.87389307 8.42379208 -3 11 C-6.95063669 11.5883927 -9.60929907 11.08658519 -13 9 C-13 8.34 -13 7.68 -13 7 C-13.99 7 -14.98 7 -16 7 C-16 20.86 -16 34.72 -16 49 C-16.33 49 -16.66 49 -17 49 C-18.17064733 44.37817094 -18.12797691 39.9306328 -18.09765625 35.19921875 C-18.0962413 34.36284378 -18.09482635 33.52646881 -18.09336853 32.66474915 C-18.08779184 30.005629 -18.07524365 27.3465945 -18.0625 24.6875 C-18.05748199 22.87955851 -18.05291961 21.0716157 -18.04882812 19.26367188 C-18.03783004 14.84241516 -18.0205815 10.42122207 -18 6 C-18.66 6 -19.32 6 -20 6 C-20.33 5.01 -20.66 4.02 -21 3 C-14.25 4.875 -14.25 4.875 -12 6 C-12 6.66 -12 7.32 -12 8 C-9.36 8.33 -6.72 8.66 -4 9 C-3.896875 7.88625 -3.79375 6.7725 -3.6875 5.625 C-3.460625 4.42875 -3.23375 3.2325 -3 2 C-2.01 1.34 -1.02 0.68 0 0 Z " fill="#1B1129" transform="translate(79,176)"/>
<path d="M0 0 C0.66 0 1.32 0 2 0 C2 1.65 2 3.3 2 5 C3.98 5 5.96 5 8 5 C8 8.96 8 12.92 8 17 C5.11584117 18.44207941 2.58278472 18.09394887 -0.625 18.0625 C-1.81351562 18.05347656 -3.00203125 18.04445312 -4.2265625 18.03515625 C-5.14179687 18.02355469 -6.05703125 18.01195312 -7 18 C-7 16.35 -7 14.7 -7 13 C-6.01 13 -5.02 13 -4 13 C-3.896875 12.34 -3.79375 11.68 -3.6875 11 C-2.80786436 7.16158991 -1.43030104 3.66903309 0 0 Z " fill="#4F3824" transform="translate(87,160)"/>
<path d="M0 0 C9.57142857 -0.14285714 9.57142857 -0.14285714 14 1 C10.8250906 2.9078584 8.89414789 3.1609041 5.25 2.625 C3.14625 2.315625 3.14625 2.315625 1 2 C1.33 4.97 1.66 7.94 2 11 C5.96 11.33 9.92 11.66 14 12 C14 9.03 14 6.06 14 3 C14.33 3.99 14.66 4.98 15 6 C15.66 6.33 16.32 6.66 17 7 C16.67 8.65 16.34 10.3 16 12 C18.31 12 20.62 12 23 12 C23.33 8.37 23.66 4.74 24 1 C23.01 0.67 22.02 0.34 21 0 C22.65 0 24.3 0 26 0 C26 4.95 26 9.9 26 15 C17.42 15 8.84 15 0 15 C0 10.05 0 5.1 0 0 Z " fill="#F6B67C" transform="translate(49,98)"/>
<path d="M0 0 C0.66 0 1.32 0 2 0 C2 11.55 2 23.1 2 35 C2.66 35 3.32 35 4 35 C4 40.61 4 46.22 4 52 C6.64 51.67 9.28 51.34 12 51 C12.99 51.66 13.98 52.32 15 53 C11.24713079 54.2509564 7.94020864 54 4 54 C2.515 54.495 2.515 54.495 1 55 C1 54.34 1 53.68 1 53 C1.66 53 2.32 53 3 53 C2.525625 52.401875 2.05125 51.80375 1.5625 51.1875 C-3.1614339 41.55067484 -0.91484554 28.29553265 -0.5625 17.8125 C-0.50915787 16.08009673 -0.45641877 14.34767479 -0.40429688 12.61523438 C-0.27647988 8.40990872 -0.14051448 4.20491975 0 0 Z " fill="#432D1A" transform="translate(90,79)"/>
<path d="M0 0 C3.30482952 0.80784722 5.48283562 1.46559681 7.875 3.9375 C9.59424315 8.6176619 9.68574171 13.07579092 9 18 C7.73339467 20.04291182 6.40113616 22.04690112 5 24 C4.38106296 26.9907038 4.13546981 29.95192925 4 33 C2.02 33.495 2.02 33.495 0 34 C-0.85691641 37.42766564 -1.01174497 39.62751675 0 43 C0 46.67168136 -0.78368346 49.54310037 -2 53 C-3.485 53.495 -3.485 53.495 -5 54 C-5.66 53.34 -6.32 52.68 -7 52 C-5.515 51.505 -5.515 51.505 -4 51 C-4.01160156 50.05898437 -4.02320312 49.11796875 -4.03515625 48.1484375 C-4.04869141 46.28058594 -4.04869141 46.28058594 -4.0625 44.375 C-4.07410156 43.14523438 -4.08570312 41.91546875 -4.09765625 40.6484375 C-4.00863924 37.32276209 -3.63686087 34.25952412 -3 31 C-1.35 31 0.3 31 2 31 C2 29.35 2 27.7 2 26 C1.34 26 0.68 26 0 26 C0.8125 24.0625 0.8125 24.0625 2 22 C2.99 21.67 3.98 21.34 5 21 C6.54007277 16.3797817 6.65622473 11.81937089 6 7 C3.74942433 3.91201326 3.74942433 3.91201326 1 2 C0.67 1.34 0.34 0.68 0 0 Z " fill="#70807F" transform="translate(104,133)"/>
<path d="M0 0 C0.66 0 1.32 0 2 0 C2 15.51 2 31.02 2 47 C1.34 47 0.68 47 0 47 C-1.1610884 44.67782321 -1.12673847 43.33438469 -1.12939453 40.74975586 C-1.13254669 39.87222153 -1.13569885 38.99468719 -1.13894653 38.09056091 C-1.1369223 37.14157425 -1.13489807 36.19258759 -1.1328125 35.21484375 C-1.13376923 34.24341934 -1.13472595 33.27199493 -1.13571167 32.27113342 C-1.13639283 30.21582983 -1.13454299 28.16052408 -1.13037109 26.10522461 C-1.1250162 22.94705411 -1.13032122 19.78902546 -1.13671875 16.63085938 C-1.13605807 14.63802052 -1.13477712 12.64518175 -1.1328125 10.65234375 C-1.13483673 9.70133286 -1.13686096 8.75032196 -1.13894653 7.77049255 C-1.13579437 6.89611038 -1.13264221 6.02172821 -1.12939453 5.12084961 C-1.12859894 4.34744736 -1.12780334 3.5740451 -1.12698364 2.77720642 C-1 1 -1 1 0 0 Z " fill="#0A090A" transform="translate(262,179)"/>
<path d="M0 0 C0.99 0 1.98 0 3 0 C3.1698451 5.70656425 3.33012277 11.41329529 3.48217773 17.12036133 C3.53499466 19.05500213 3.59026251 20.98957784 3.64819336 22.92407227 C3.98878397 34.35903197 4.06339837 45.59979283 3 57 C2.34 57 1.68 57 1 57 C0.67 38.19 0.34 19.38 0 0 Z " fill="#221514" transform="translate(93,74)"/>
<path d="M0 0 C1.1725131 0.95117134 2.33787015 1.91117009 3.5 2.875 C4.1496875 3.40867188 4.799375 3.94234375 5.46875 4.4921875 C6.22671875 5.23855469 6.22671875 5.23855469 7 6 C7 6.66 7 7.32 7 8 C6.01 8 5.02 8 4 8 C4 9.65 4 11.3 4 13 C5.98 13 7.96 13 10 13 C10.33 19.93 10.66 26.86 11 34 C11.66 34.33 12.32 34.66 13 35 C13 35.66 13 36.32 13 37 C11.0625 36.3125 11.0625 36.3125 9 35 C7.60026915 30.60084591 8.08520208 26.21878011 8.4375 21.6875 C8.48970703 20.94693359 8.54191406 20.20636719 8.59570312 19.44335938 C8.72450152 17.62847291 8.86143262 15.81416675 9 14 C7.02 14 5.04 14 3 14 C3 12.35 3 10.7 3 9 C2.34 9 1.68 9 1 9 C0.8453125 10.2684375 0.8453125 10.2684375 0.6875 11.5625 C-0.0828854 15.41442701 -1.36274514 18.44075031 -3 22 C-3.99 22 -4.98 22 -6 22 C-6.33 23.32 -6.66 24.64 -7 26 C-8 24 -8 24 -7.22265625 21.6171875 C-6.83980469 20.71226562 -6.45695312 19.80734375 -6.0625 18.875 C-5.68222656 17.96492188 -5.30195312 17.05484375 -4.91015625 16.1171875 C-4.60980469 15.41851562 -4.30945313 14.71984375 -4 14 C-3.34 14 -2.68 14 -2 14 C-1.67 12.02 -1.34 10.04 -1 8 C-0.34 8 0.32 8 1 8 C0.67 5.36 0.34 2.72 0 0 Z " fill="#494E50" transform="translate(86,151)"/>
<path d="M0 0 C0.99 0 1.98 0 3 0 C2.9175 1.258125 2.835 2.51625 2.75 3.8125 C2.71296374 7.21285567 2.71296374 7.21285567 4.6875 9.9375 C7.13533414 11.06218055 9.33652788 11.63007332 12 12 C11.01 12.66 10.02 13.32 9 14 C9.91495239 14.06731323 9.91495239 14.06731323 10.84838867 14.13598633 C13.62929549 14.34815433 16.40821132 14.58013024 19.1875 14.8125 C20.14720703 14.88275391 21.10691406 14.95300781 22.09570312 15.02539062 C27.09828532 15.45813995 30.9076764 15.80150297 35 19 C34.01 19.495 34.01 19.495 33 20 C32.11828125 19.69964844 31.2365625 19.39929688 30.328125 19.08984375 C26.6714491 17.89241115 23.58785479 17.69497825 19.75 17.5625 C12.24222106 17.12694547 5.2439907 16.71589919 -0.6875 11.75 C-2.43260389 8.09359186 -1.95119538 5.87795041 -1 2 C-0.67 1.34 -0.34 0.68 0 0 Z " fill="#0A0C06" transform="translate(255,116)"/>
<path d="M0 0 C0.99 0 1.98 0 3 0 C3 1.65 3 3.3 3 5 C5.97 5.99 8.94 6.98 12 8 C12 17.57 12 27.14 12 37 C11.34 36.67 10.68 36.34 10 36 C10 27.42 10 18.84 10 10 C8.35 9.67 6.7 9.34 5 9 C4.67 9.66 4.34 10.32 4 11 C0.77195053 8.18847304 -0.6588327 6.32145242 -1 2 C-0.67 1.34 -0.34 0.68 0 0 Z " fill="#8595A1" transform="translate(87,146)"/>
<path d="M0 0 C0.83828626 2.38589166 1.11693437 3.63831928 0.328125 6.078125 C-0.02765625 6.79484375 -0.3834375 7.5115625 -0.75 8.25 C-2.17122579 11.21943395 -3.46334802 14.14651205 -4.5625 17.25 C-5.72932641 20.43225385 -7.21107987 23.11020594 -9 26 C-10.25940924 28.58878567 -11.49895877 31.18527404 -12.71875 33.79296875 C-14 36 -14 36 -17 38 C-17 36.68 -17 35.36 -17 34 C-16.34 34 -15.68 34 -15 34 C-14.896875 33.13375 -14.79375 32.2675 -14.6875 31.375 C-13.96601586 27.83316877 -12.72876739 25.15687958 -11 22 C-10.34 22 -9.68 22 -9 22 C-8.67 19.69 -8.34 17.38 -8 15 C-7.34 15 -6.68 15 -6 15 C-5.87625 13.7625 -5.87625 13.7625 -5.75 12.5 C-4.83535064 8.23163631 -3.17748196 3.17748196 0 0 Z " fill="#644E3E" transform="translate(65,135)"/>
<path d="M0 0 C0.33 0 0.66 0 1 0 C1.33 15.18 1.66 30.36 2 46 C1.01 46 0.02 46 -1 46 C-1.02529951 39.77035385 -1.04284549 33.54072088 -1.05493164 27.31103516 C-1.05996872 25.19058741 -1.06679859 23.07014315 -1.07543945 20.94970703 C-1.08753234 17.90656678 -1.09323447 14.86347234 -1.09765625 11.8203125 C-1.10281754 10.86818878 -1.10797882 9.91606506 -1.11329651 8.93508911 C-1.11337204 8.05432709 -1.11344757 7.17356506 -1.11352539 6.26611328 C-1.115746 5.48889923 -1.11796661 4.71168518 -1.12025452 3.91091919 C-1 2 -1 2 0 0 Z " fill="#110E11" transform="translate(262,27)"/>
<path d="M0 0 C1.19109375 -0.00386719 1.19109375 -0.00386719 2.40625 -0.0078125 C4.5 0.125 4.5 0.125 6.5 1.125 C6.38487847 2.85485242 6.25744323 4.58388751 6.125 6.3125 C6.05539062 7.27542969 5.98578125 8.23835938 5.9140625 9.23046875 C5.49784147 12.14008938 4.70125904 14.45390774 3.5 17.125 C2.51 17.125 1.52 17.125 0.5 17.125 C0.83 12.175 1.16 7.225 1.5 2.125 C-1.14 2.455 -3.78 2.785 -6.5 3.125 C-6.5 2.465 -6.5 1.805 -6.5 1.125 C-4.13386544 -0.05806728 -2.63219264 -0.00854608 0 0 Z " fill="#0C0D08" transform="translate(300.5,88.875)"/>
<path d="M0 0 C2.31 0 4.62 0 7 0 C6.67 1.32 6.34 2.64 6 4 C6.66 4 7.32 4 8 4 C8 5.32 8 6.64 8 8 C5.6739143 8.38063221 3.33944736 8.71269945 1 9 C0 8 0 8 -0.09765625 6.15234375 C-0.06510417 4.1015625 -0.03255208 2.05078125 0 0 Z " fill="#9E754F" transform="translate(50,101)"/>
<path d="M0 0 C1.75171509 0.07069702 1.75171509 0.07069702 3.53881836 0.14282227 C5.42890625 0.21533203 5.42890625 0.21533203 7.35717773 0.28930664 C8.69767719 0.34583669 10.03817193 0.40247878 11.37866211 0.45922852 C12.72304457 0.51243456 14.06744554 0.56517504 15.41186523 0.61743164 C18.71350868 0.74760396 22.01488653 0.88258462 25.31616211 1.02172852 C25.31616211 1.35172852 25.31616211 1.68172852 25.31616211 2.02172852 C16.40616211 2.02172852 7.49616211 2.02172852 -1.68383789 2.02172852 C-1.68383789 7.30172852 -1.68383789 12.58172852 -1.68383789 18.02172852 C-2.34383789 18.35172852 -3.00383789 18.68172852 -3.68383789 19.02172852 C-3.71067776 16.04250258 -3.73059826 13.06351557 -3.74633789 10.08422852 C-3.7547168 9.2340918 -3.7630957 8.38395508 -3.77172852 7.50805664 C-3.77495117 6.69916992 -3.77817383 5.8902832 -3.78149414 5.05688477 C-3.78673096 4.30802002 -3.79196777 3.55915527 -3.79736328 2.78759766 C-3.60722872 -0.1699148 -2.97108941 0.02405412 0 0 Z " fill="#765436" transform="translate(49.683837890625,94.978271484375)"/>
<path d="M0 0 C1.65 0.33 3.3 0.66 5 1 C5.125 3.375 5.125 3.375 5 6 C4.34 6.66 3.68 7.32 3 8 C1.68 8 0.36 8 -1 8 C-1 7.34 -1 6.68 -1 6 C-3.97 5.505 -3.97 5.505 -7 5 C-6.67 3.68 -6.34 2.36 -6 1 C-3.03 1.495 -3.03 1.495 0 2 C0 1.34 0 0.68 0 0 Z " fill="#626E77" transform="translate(97,135)"/>
<path d="M0 0 C0.721875 0.825 1.44375 1.65 2.1875 2.5 C4.7193845 5.24897479 4.7193845 5.24897479 7.75 5.25 C8.4925 5.1675 9.235 5.085 10 5 C11 6 11 6 11.0625 9.125 C10.30161387 14.37511432 6.00928473 16.99531964 2 20 C2 17 2 17 4 14.5625 C6.41018057 12.01622296 6.41018057 12.01622296 6 8 C4.34997172 6.64613064 2.6825613 5.31321858 1 4 C0.1875 1.75 0.1875 1.75 0 0 Z " fill="#0C0C07" transform="translate(136,107)"/>
<path d="M0 0 C0.33 0.66 0.66 1.32 1 2 C5.95 1.67 10.9 1.34 16 1 C16 2.32 16 3.64 16 5 C10.06 5.33 4.12 5.66 -2 6 C-1 1 -1 1 0 0 Z " fill="#0E0D0D" transform="translate(79,176)"/>
<path d="M0 0 C0.66 0 1.32 0 2 0 C2 4.95 2 9.9 2 15 C3.258125 14.79375 4.51625 14.5875 5.8125 14.375 C9.4014758 13.78664331 9.75073878 13.83382585 13 16 C9.24713079 17.2509564 5.94020864 17 2 17 C1.01 17.33 0.02 17.66 -1 18 C-1 17.34 -1 16.68 -1 16 C-0.34 16 0.32 16 1 16 C0.484375 15.195625 -0.03125 14.39125 -0.5625 13.5625 C-2.37530903 9.06988632 -2.06145159 5.66842133 -1 1 C-0.67 0.67 -0.34 0.34 0 0 Z " fill="#644F41" transform="translate(92,116)"/>
<path d="M0 0 C0.66 0 1.32 0 2 0 C2.98248196 4.05273808 3.16017882 7.83535074 3 12 C2 13 2 13 -1.0625 13.0625 C-2.031875 13.041875 -3.00125 13.02125 -4 13 C-3.27991594 8.39146203 -1.68704061 4.32762591 0 0 Z " fill="#BF804B" transform="translate(87,160)"/>
<path d="M0 0 C0.66 0 1.32 0 2 0 C2 2.31 2 4.62 2 7 C2.60328125 6.79503906 3.2065625 6.59007812 3.828125 6.37890625 C4.62734375 6.10949219 5.4265625 5.84007812 6.25 5.5625 C7.03890625 5.29566406 7.8278125 5.02882812 8.640625 4.75390625 C10.74821988 4.08045292 12.84753973 3.50849405 15 3 C12.24207283 6.06436352 10.01674364 7.92233707 6 9 C3.1875 8.625 3.1875 8.625 1 8 C1 7.34 1 6.68 1 6 C0.34 6 -0.32 6 -1 6 C-1 6.66 -1 7.32 -1 8 C-2.98 8.33 -4.96 8.66 -7 9 C-6.67 8.34 -6.34 7.68 -6 7 C-5.34 7 -4.68 7 -4 7 C-3.67 6.01 -3.34 5.02 -3 4 C-2.34 3.67 -1.68 3.34 -1 3 C-0.67 2.01 -0.34 1.02 0 0 Z " fill="#0F0D10" transform="translate(319,132)"/>
<path d="M0 0 C1.2375 -0.020625 2.475 -0.04125 3.75 -0.0625 C4.44609375 -0.07410156 5.1421875 -0.08570312 5.859375 -0.09765625 C8 0 8 0 12 1 C12.33 3.97 12.66 6.94 13 10 C10.69 10 8.38 10 6 10 C6.66 9.67 7.32 9.34 8 9 C8 7.68 8 6.36 8 5 C7.34 5 6.68 5 6 5 C6.33 3.68 6.66 2.36 7 1 C4.69 1 2.38 1 0 1 C0 0.67 0 0.34 0 0 Z " fill="#DAA06D" transform="translate(50,100)"/>
<path d="M0 0 C1.2065625 0.0309375 1.2065625 0.0309375 2.4375 0.0625 C2.7675 1.7125 3.0975 3.3625 3.4375 5.0625 C2.4475 5.5575 2.4475 5.5575 1.4375 6.0625 C2.0975 6.3925 2.7575 6.7225 3.4375 7.0625 C3.4375 7.7225 3.4375 8.3825 3.4375 9.0625 C1.1275 9.0625 -1.1825 9.0625 -3.5625 9.0625 C-3.66015625 2.91015625 -3.66015625 2.91015625 -3.5625 1.0625 C-2.5625 0.0625 -2.5625 0.0625 0 0 Z " fill="#815F41" transform="translate(68.5625,100.9375)"/>
<path d="M0 0 C0.99 0 1.98 0 3 0 C2.814375 0.7425 2.62875 1.485 2.4375 2.25 C1.99943237 5.00356798 2.21601717 6.38672389 3 9 C3 12.67168136 2.21631654 15.54310037 1 19 C0.01 19.33 -0.98 19.66 -2 20 C-2.66 19.34 -3.32 18.68 -4 18 C-3.01 17.67 -2.02 17.34 -1 17 C-1.01160156 16.02417969 -1.02320312 15.04835937 -1.03515625 14.04296875 C-1.04417969 12.77066406 -1.05320312 11.49835938 -1.0625 10.1875 C-1.07410156 8.92292969 -1.08570312 7.65835938 -1.09765625 6.35546875 C-1 3 -1 3 0 0 Z " fill="#778D89" transform="translate(101,167)"/>
<path d="M0 0 C9.48421053 -0.55789474 9.48421053 -0.55789474 14 3 C16 5 16 5 16 8 C15.34 8 14.68 8 14 8 C14.33 8.99 14.66 9.98 15 11 C13.68 10.67 12.36 10.34 11 10 C10.34 7.69 9.68 5.38 9 3 C4.545 2.01 4.545 2.01 0 1 C0 0.67 0 0.34 0 0 Z " fill="#6180A4" transform="translate(77,124)"/>
<path d="M0 0 C1.65 0.33 3.3 0.66 5 1 C5 3.97 5 6.94 5 10 C2.69 9.67 0.38 9.34 -2 9 C-2 7.35 -2 5.7 -2 4 C-1.01 4 -0.02 4 1 4 C0.67 2.68 0.34 1.36 0 0 Z " fill="#B9CFDF" transform="translate(92,155)"/>
<path d="M0 0 C0.33 0 0.66 0 1 0 C1 3.96 1 7.92 1 12 C-3.29 12 -7.58 12 -12 12 C-11.67 11.01 -11.34 10.02 -11 9 C-10.36191406 8.93941406 -9.72382812 8.87882813 -9.06640625 8.81640625 C-8.24011719 8.73261719 -7.41382812 8.64882812 -6.5625 8.5625 C-5.73878906 8.48128906 -4.91507812 8.40007812 -4.06640625 8.31640625 C-2.01337975 8.21069185 -2.01337975 8.21069185 -1 7 C-0.63239269 4.67182036 -0.29758419 2.3381615 0 0 Z " fill="#B67A47" transform="translate(92,166)"/>
<path d="M0 0 C0.99 0.33 1.98 0.66 3 1 C2.34 2.32 1.68 3.64 1 5 C2.98 4.34 4.96 3.68 7 3 C5.63016497 6.16115776 5.0109362 6.9927092 2 9 C-0.6875 9.125 -0.6875 9.125 -3 9 C-3.75 6.75 -3.75 6.75 -4 4 C-2.0625 1.6875 -2.0625 1.6875 0 0 Z " fill="#0F0E10" transform="translate(199,143)"/>
<path d="M0 0 C1.051875 -0.02126953 1.051875 -0.02126953 2.125 -0.04296875 C4 0.1875 4 0.1875 6 2.1875 C5.01 2.1875 4.02 2.1875 3 2.1875 C2.67 2.8475 2.34 3.5075 2 4.1875 C1.01 3.8575 0.02 3.5275 -1 3.1875 C-1 3.8475 -1 4.5075 -1 5.1875 C-2.98 5.1875 -4.96 5.1875 -7 5.1875 C-7.33 4.5275 -7.66 3.8675 -8 3.1875 C-7.34 3.1875 -6.68 3.1875 -6 3.1875 C-6 2.5275 -6 1.8675 -6 1.1875 C-3.77109005 0.07304502 -2.46944894 0.02269714 0 0 Z " fill="#A2B6C5" transform="translate(98,131.8125)"/>
<path d="M0 0 C0.33 0.99 0.66 1.98 1 3 C1.66 3.33 2.32 3.66 3 4 C2.67 5.65 2.34 7.3 2 9 C4.31 9 6.62 9 9 9 C9.33 9.99 9.66 10.98 10 12 C8.22992286 12.08114106 6.45877902 12.13925505 4.6875 12.1875 C3.70136719 12.22230469 2.71523437 12.25710937 1.69921875 12.29296875 C-1 12 -1 12 -2.85546875 10.48828125 C-3.23316406 9.99714844 -3.61085937 9.50601563 -4 9 C-2.68 9 -1.36 9 0 9 C0 6.03 0 3.06 0 0 Z " fill="#EDAF77" transform="translate(63,101)"/>
<path d="M0 0 C0.66 0.33 1.32 0.66 2 1 C2 4.3 2 7.6 2 11 C0.68 10.67 -0.64 10.34 -2 10 C-2 8.35 -2 6.7 -2 5 C-2.66 4.67 -3.32 4.34 -4 4 C-2.68 2.68 -1.36 1.36 0 0 Z " fill="#825B3B" transform="translate(88,115)"/>
<path d="M0 0 C0.33 0 0.66 0 1 0 C1.34615998 5.65394631 0.43425238 9.03006806 -2 14 C-2.99 14 -3.98 14 -5 14 C-5.33 15.32 -5.66 16.64 -6 18 C-7 16 -7 16 -6.22265625 13.6171875 C-5.83980469 12.71226562 -5.45695312 11.80734375 -5.0625 10.875 C-4.68222656 9.96492187 -4.30195312 9.05484375 -3.91015625 8.1171875 C-3.60980469 7.41851562 -3.30945313 6.71984375 -3 6 C-2.34 6 -1.68 6 -1 6 C-0.67 4.02 -0.34 2.04 0 0 Z " fill="#50545C" transform="translate(85,159)"/>
<path d="M0 0 C0.66 0.33 1.32 0.66 2 1 C2.20086443 4.71599191 2.1519437 5.77208445 0 9 C-3.94726562 9.42905061 -6.61242079 9.08466413 -10 7 C-10 6.34 -10 5.68 -10 5 C-10.66 5 -11.32 5 -12 5 C-11.67 4.34 -11.34 3.68 -11 3 C-10.34 3.33 -9.68 3.66 -9 4 C-9 4.66 -9 5.32 -9 6 C-6.36 6.33 -3.72 6.66 -1 7 C-0.67 4.69 -0.34 2.38 0 0 Z " fill="#304253" transform="translate(76,178)"/>
<path d="M0 0 C1.25348607 2.95106435 1.01044806 3.97406463 -0.21484375 7.015625 C-1.06755859 8.61664063 -1.06755859 8.61664063 -1.9375 10.25 C-2.50339844 11.32765625 -3.06929687 12.4053125 -3.65234375 13.515625 C-4.09707031 14.33546875 -4.54179688 15.1553125 -5 16 C-6.09346477 13.22681526 -6.03742841 12.10756865 -5.0390625 9.23828125 C-4.57242188 8.27277344 -4.10578125 7.30726563 -3.625 6.3125 C-3.16351563 5.33925781 -2.70203125 4.36601562 -2.2265625 3.36328125 C-1 1 -1 1 0 0 Z " fill="#54473E" transform="translate(65,135)"/>
<path d="M0 0 C1.32 0 2.64 0 4 0 C4 2.97 4 5.94 4 9 C1.69 9.33 -0.62 9.66 -3 10 C-3 9.01 -3 8.02 -3 7 C-1.35 7 0.3 7 2 7 C2 5.35 2 3.7 2 2 C1.34 2 0.68 2 0 2 C0 1.34 0 0.68 0 0 Z " fill="#5C6A67" transform="translate(104,157)"/>
<path d="M0 0 C2.08554278 3.42624885 2.26953755 6.14910816 2.25 10.125 C2.25515625 11.17945313 2.2603125 12.23390625 2.265625 13.3203125 C2 16 2 16 0 18 C-1 17 -1 17 -1.1328125 14.19921875 C-1.13023438 13.04035156 -1.12765625 11.88148438 -1.125 10.6875 C-1.12757812 9.53636719 -1.13015625 8.38523438 -1.1328125 7.19921875 C-1.02438878 4.58748263 -0.77059738 2.47692016 0 0 Z " fill="#4C5C6D" transform="translate(85,135)"/>
<path d="M0 0 C0.99 0.66 1.98 1.32 3 2 C2.67 5.3 2.34 8.6 2 12 C0.68 11.34 -0.64 10.68 -2 10 C-1.34 6.7 -0.68 3.4 0 0 Z " fill="#221343" transform="translate(106,122)"/>
<path d="M0 0 C0.99 0 1.98 0 3 0 C3.12375 1.11375 3.2475 2.2275 3.375 3.375 C3.6465813 7.03103677 3.6465813 7.03103677 6 9 C5.34 9.66 4.68 10.32 4 11 C0.77195053 8.18847304 -0.6588327 6.32145242 -1 2 C-0.67 1.34 -0.34 0.68 0 0 Z " fill="#9DB0BE" transform="translate(87,146)"/>
<path d="M0 0 C-1.26190138 3.78570414 -2.54855815 4.21831571 -5.9375 6.1875 C-6.83339844 6.71730469 -7.72929687 7.24710937 -8.65234375 7.79296875 C-11 9 -11 9 -13 9 C-11.73809862 5.21429586 -10.45144185 4.78168429 -7.0625 2.8125 C-6.16660156 2.28269531 -5.27070313 1.75289063 -4.34765625 1.20703125 C-2 0 -2 0 0 0 Z " fill="#0E0D0D" transform="translate(291,92)"/>
<path d="M0 0 C0.33 0 0.66 0 1 0 C1.125 2.375 1.125 2.375 1 5 C0.34 5.66 -0.32 6.32 -1 7 C-2.32 7 -3.64 7 -5 7 C-5 6.34 -5 5.68 -5 5 C-5.66 4.67 -6.32 4.34 -7 4 C-3.535 3.505 -3.535 3.505 0 3 C0 2.01 0 1.02 0 0 Z " fill="#8C9DAA" transform="translate(101,136)"/>
<path d="M0 0 C3.64782588 0.89169077 5.54676905 1.41079976 7.875 4.4375 C9 7 9 7 9 10 C8.34 10 7.68 10 7 10 C6.401875 8.906875 5.80375 7.81375 5.1875 6.6875 C3.70955303 4.08925871 2.30177067 1.95650507 0 0 Z " fill="#596669" transform="translate(104,133)"/>
<path d="M0 0 C0.33 0.99 0.66 1.98 1 3 C-0.32 3.33 -1.64 3.66 -3 4 C-3 3.34 -3 2.68 -3 2 C-5.02045442 2.60183749 -7.02111039 3.27306096 -9 4 C-9.33 4.66 -9.66 5.32 -10 6 C-10 3 -10 3 -8 1 C-2.66666667 0.66666667 -2.66666667 0.66666667 0 2 C0 1.34 0 0.68 0 0 Z " fill="#080B05" transform="translate(212,129)"/>
<path d="M0 0 C0 0.33 0 0.66 0 1 C-0.78375 1.12375 -1.5675 1.2475 -2.375 1.375 C-5.14057822 1.79117993 -5.14057822 1.79117993 -7 4 C-7.69748583 5.31747324 -8.36959957 6.64914193 -9 8 C-9 5.69 -9 3.38 -9 1 C-9.99 0.67 -10.98 0.34 -12 0 C-7.91556885 -1.53166168 -4.20544343 -0.63081652 0 0 Z " fill="#DFA470" transform="translate(71,100)"/>
<path d="M0 0 C0.99 0.66 1.98 1.32 3 2 C2.1875 5.4375 2.1875 5.4375 1 9 C0.01 9.33 -0.98 9.66 -2 10 C-2.66 9.34 -3.32 8.68 -4 8 C-3.01 7.67 -2.02 7.34 -1 7 C-0.67 4.69 -0.34 2.38 0 0 Z " fill="#738681" transform="translate(101,177)"/>
<path d="M0 0 C0.99 0 1.98 0 3 0 C3.33 2.97 3.66 5.94 4 9 C2.68 9 1.36 9 0 9 C0 6.03 0 3.06 0 0 Z " fill="#5C432E" transform="translate(59,101)"/>
<path d="M0 0 C0 0.99 0 1.98 0 3 C-1.65 3.33 -3.3 3.66 -5 4 C-5.33 2.68 -5.66 1.36 -6 0 C-3 -1 -3 -1 0 0 Z " fill="#7B5331" transform="translate(87,129)"/>
<path d="M0 0 C0.66 0.33 1.32 0.66 2 1 C1.67 6.61 1.34 12.22 1 18 C0.67 18 0.34 18 0 18 C-0.19430855 15.3753399 -0.38073238 12.75053235 -0.5625 10.125 C-0.61857422 9.37863281 -0.67464844 8.63226563 -0.73242188 7.86328125 C-1.11328125 2.2265625 -1.11328125 2.2265625 0 0 Z " fill="#795537" transform="translate(76,95)"/>
<path d="M0 0 C0 0.66 0 1.32 0 2 C-5.41538462 5.07692308 -5.41538462 5.07692308 -8.375 4.6875 C-8.91125 4.460625 -9.4475 4.23375 -10 4 C-3.375 0 -3.375 0 0 0 Z " fill="#110D16" transform="translate(348,135)"/>
<path d="M0 0 C2.97 0.99 5.94 1.98 9 3 C9 3.66 9 4.32 9 5 C5.93606987 5.25532751 4.36766788 5.21861333 1.6875 3.625 C1.130625 3.08875 0.57375 2.5525 0 2 C0 1.34 0 0.68 0 0 Z " fill="#8B9BA8" transform="translate(90,151)"/>
<path d="M0 0 C1.0625 1.875 1.0625 1.875 2 4 C1.67 4.66 1.34 5.32 1 6 C2.65 5.67 4.3 5.34 6 5 C5.67 5.66 5.34 6.32 5 7 C3.33388095 7.042721 1.66617115 7.04063832 0 7 C-1 6 -1 6 -1.125 3.5 C-1 1 -1 1 0 0 Z " fill="#050B01" transform="translate(311,135)"/>
<path d="M0 0 C0.99 0.66 1.98 1.32 3 2 C1.66666667 4.66666667 0.33333333 7.33333333 -1 10 C-2.15837626 5.94568308 -1.83691257 3.78187881 0 0 Z " fill="#615D5E" transform="translate(67,129)"/>
<path d="M0 0 C1.32 0 2.64 0 4 0 C3.39816251 2.02045442 2.72693904 4.02111039 2 6 C1.01 6.495 1.01 6.495 0 7 C-1.04449911 3.86650268 -0.93423645 3.01031744 0 0 Z " fill="#59575A" transform="translate(57,150)"/>
<path d="M0 0 C1.98 0.99 1.98 0.99 4 2 C4 2.99 4 3.98 4 5 C2.68 5.33 1.36 5.66 0 6 C0 4.02 0 2.04 0 0 Z " fill="#6E93BF" transform="translate(89,127)"/>
<path d="M0 0 C1.98 0.66 3.96 1.32 6 2 C6 2.66 6 3.32 6 4 C3.69 4 1.38 4 -1 4 C-0.67 2.68 -0.34 1.36 0 0 Z " fill="#624831" transform="translate(66,106)"/>
<path d="M0 0 C0.66 0 1.32 0 2 0 C1.67 1.32 1.34 2.64 1 4 C-0.65 4 -2.3 4 -4 4 C-4.33 3.01 -4.66 2.02 -5 1 C-2.525 1.495 -2.525 1.495 0 2 C0 1.34 0 0.68 0 0 Z " fill="#76573B" transform="translate(55,106)"/>
<path d="M0 0 C1 3 1 3 -0.4375 6.1875 C-1.2109375 7.5796875 -1.2109375 7.5796875 -2 9 C-2.93423645 5.98968256 -3.04449911 5.13349732 -2 2 C-1.34 2 -0.68 2 0 2 C0 1.34 0 0.68 0 0 Z " fill="#4E423B" transform="translate(56,155)"/>
<path d="M0 0 C0.66 0 1.32 0 2 0 C2 0.99 2 1.98 2 3 C2.66 3 3.32 3 4 3 C4 3.66 4 4.32 4 5 C3.34 5 2.68 5 2 5 C1.67 5.66 1.34 6.32 1 7 C1 5.68 1 4.36 1 3 C0.01 2.67 -0.98 2.34 -2 2 C-1.34 1.34 -0.68 0.68 0 0 Z " fill="#24292F" transform="translate(85,132)"/>
<path d="M0 0 C1.98 0 3.96 0 6 0 C5.01 0.33 4.02 0.66 3 1 C3 1.66 3 2.32 3 3 C3.66 3.33 4.32 3.66 5 4 C3.35 4 1.7 4 0 4 C0 2.68 0 1.36 0 0 Z " fill="#493624" transform="translate(50,101)"/>
</svg>
