<?xml version="1.0" encoding="UTF-8"?>
<svg version="1.1" xmlns="http://www.w3.org/2000/svg" width="413" height="246">
<path d="M0 0 C66.66 0 133.32 0 202 0 C202 15.84 202 31.68 202 48 C201.01 48 200.02 48 199 48 C197.97851617 33.69922637 198 19.33720878 198 5 C133.65 4.67 69.3 4.34 3 4 C3.495 7.465 3.495 7.465 4 11 C4.07876879 13.71693053 4.11746289 16.40572866 4.09765625 19.12109375 C4.0962413 19.86585464 4.09482635 20.61061554 4.09336853 21.37794495 C4.08781989 23.73117273 4.07527733 26.0843015 4.0625 28.4375 C4.05747835 30.04361841 4.05291661 31.64973832 4.04882812 33.25585938 C4.03786735 37.17061043 4.02063884 41.08528849 4 45 C4.86802246 45.01981934 5.73604492 45.03963867 6.63037109 45.06005859 C9.84726267 45.13809872 13.06377045 45.22478881 16.28027344 45.31738281 C17.67308572 45.35569327 19.06599765 45.39054259 20.45898438 45.421875 C22.45986308 45.46747907 24.46042146 45.52651623 26.4609375 45.5859375 C27.66540527 45.6173584 28.86987305 45.6487793 30.11083984 45.68115234 C33 46 33 46 35 48 C36.2623211 52.31579369 36.12875214 56.68750453 36.09765625 61.14453125 C36.0962413 61.91431808 36.09482635 62.68410492 36.09336853 63.47721863 C36.08779606 65.92235288 36.07524871 68.36739368 36.0625 70.8125 C36.05748144 72.47591013 36.05291915 74.1393217 36.04882812 75.80273438 C36.03783566 79.86852528 36.0205901 83.93424683 36 88 C36.94101563 88.45503906 37.88203125 88.91007812 38.8515625 89.37890625 C42.56633153 91.2915975 44.03232515 92.29168971 46 96 C46.11091715 99.07581796 45.9958702 102.1085738 45.87890625 105.18359375 C46.03847748 108.89491182 47.33424488 110.49580579 50 113 C51.75179535 118.25538604 51.64761951 122.48888781 49.5 127.5 C49.005 128.325 48.51 129.15 48 130 C47.34 130 46.68 130 46 130 C46 133.3 46 136.6 46 140 C44.02 140.99 44.02 140.99 42 142 C41.00156224 144.40882687 41.00156224 144.40882687 41 147 C41.66 147.99 42.32 148.98 43 150 C42.75 151.75 42.75 151.75 42 154 C41.5978125 155.794375 41.5978125 155.794375 41.1875 157.625 C40 161 40 161 37.875 162.4375 C37.25625 162.623125 36.6375 162.80875 36 163 C34 161.1875 34 161.1875 32 159 C32 158.01 32 157.02 32 156 C26.72 156 21.44 156 16 156 C15.34 157.65 14.68 159.3 14 161 C9.73823304 162.72774336 8.52693423 161.81077369 4 160 C3.67 172.54 3.34 185.08 3 198 C67.68 198 132.36 198 199 198 C199 183.81 199 169.62 199 155 C200.32 154.67 201.64 154.34 203 154 C203.0505939 160.51445205 203.08568856 167.02885368 203.10986328 173.54345703 C203.11993825 175.76092421 203.13359859 177.97837805 203.15087891 180.19580078 C203.17506163 183.37796312 203.18646797 186.55995024 203.1953125 189.7421875 C203.20563507 190.73805878 203.21595764 191.73393005 203.22659302 192.75997925 C203.22674408 193.68078278 203.22689514 194.6015863 203.22705078 195.55029297 C203.231492 196.3630368 203.23593323 197.17578064 203.24050903 198.01315308 C203 200 203 200 201 202 C198.34166354 202.19325521 195.78792483 202.26046573 193.12875366 202.24050903 C192.30625079 202.24221788 191.48374791 202.24392673 190.63632071 202.24568737 C187.86471919 202.2489964 185.09335677 202.23795544 182.32177734 202.22705078 C180.34121201 202.22648697 178.36064626 202.22680263 176.38008118 202.22793579 C170.98983932 202.22851149 165.59968581 202.21672216 160.20946455 202.20278788 C154.5813488 202.19031657 148.9532312 202.18911287 143.32510376 202.18673706 C132.661403 202.18051168 121.99774306 202.16408658 111.33406031 202.14403808 C99.19640292 202.12171195 87.05874362 202.11069393 74.92107081 202.10064721 C49.94735788 202.07972125 24.97368122 202.04452477 0 202 C-1.15410254 199.69179492 -1.1210297 198.39215724 -1.11352539 195.82568359 C-1.11344986 194.96494232 -1.11337433 194.10420105 -1.11329651 193.21737671 C-1.10813522 192.28712677 -1.10297394 191.35687683 -1.09765625 190.3984375 C-1.0962413 189.44683746 -1.09482635 188.49523743 -1.09336853 187.51480103 C-1.08776012 184.46816903 -1.07520619 181.42160987 -1.0625 178.375 C-1.05748608 176.31250106 -1.05292299 174.25000097 -1.04882812 172.1875 C-1.03778796 167.12497183 -1.02051767 162.06249827 -1 157 C-1.95366455 156.98018066 -2.9073291 156.96036133 -3.88989258 156.93994141 C-7.42922299 156.86384986 -10.96814417 156.77513839 -14.50708008 156.68261719 C-16.03857339 156.64434202 -17.57015615 156.60948651 -19.10180664 156.578125 C-21.3038733 156.53244193 -23.50532496 156.47445463 -25.70703125 156.4140625 C-26.39150833 156.40251129 -27.07598541 156.39096008 -27.78120422 156.37905884 C-31.38460837 156.26726256 -32.9159183 156.05605447 -36 154 C-36.35559942 150.88366303 -36.51381235 147.96085294 -36.546875 144.8359375 C-36.56769638 143.87990631 -36.58851776 142.92387512 -36.60997009 141.93887329 C-36.67327232 138.75096872 -36.71279558 135.56330935 -36.75 132.375 C-36.78489362 130.15624971 -36.81980603 127.93749971 -36.85473633 125.71875 C-37.09478761 108.14371763 -36.960749 90.57379004 -36.6875 73 C-36.67062134 71.75756531 -36.65374268 70.51513062 -36.63635254 69.23504639 C-36.5853674 65.71888043 -36.5200563 62.20331569 -36.44921875 58.6875 C-36.43447006 57.6314859 -36.41972137 56.5754718 -36.40452576 55.48745728 C-36.3814888 54.52608856 -36.35845184 53.56471985 -36.3347168 52.57421875 C-36.31837692 51.73463623 -36.30203705 50.89505371 -36.28520203 50.0300293 C-36 48 -36 48 -34 46 C-31.49720952 45.75493744 -29.09366045 45.62650065 -26.5859375 45.5859375 C-25.93923096 45.56829346 -25.29252441 45.55064941 -24.6262207 45.5324707 C-22.2094005 45.46938386 -19.79216271 45.42321073 -17.375 45.375 C-9.269375 45.189375 -9.269375 45.189375 -1 45 C-0.67 30.15 -0.34 15.3 0 0 Z M35 92 C35 96.29 35 100.58 35 105 C37.64 105.33 40.28 105.66 43 106 C43.63345368 99.53923239 43.63345368 99.53923239 40.6875 93.9375 C38.14659341 91.70759921 38.14659341 91.70759921 35 92 Z " fill="#50351F" transform="translate(62,22)"/>
<path d="M0 0 C7.81452752 -0.02526563 15.62904458 -0.04283105 23.44360352 -0.05493164 C26.10441481 -0.05997383 28.76522332 -0.06680736 31.42602539 -0.07543945 C35.24105516 -0.08751009 39.05604844 -0.09322929 42.87109375 -0.09765625 C44.66793861 -0.10539818 44.66793861 -0.10539818 46.50108337 -0.11329651 C48.15268211 -0.11340981 48.15268211 -0.11340981 49.83764648 -0.11352539 C50.81249496 -0.115746 51.78734344 -0.11796661 52.79173279 -0.12025452 C55 0 55 0 56 1 C56.29158483 5.93295089 56.31403738 10.86858131 56.35009766 15.80932617 C56.3666472 17.47288004 56.39392451 19.13636309 56.43212891 20.79956055 C56.48691687 23.19617649 56.50877368 25.59112329 56.5234375 27.98828125 C56.54610687 28.73008133 56.56877625 29.47188141 56.59213257 30.23616028 C56.58349609 32.34887695 56.58349609 32.34887695 56 36 C53.52978516 38.37573242 53.52978516 38.37573242 51 40 C50.505 40.99 50.505 40.99 50 42 C48.1746875 42.1546875 48.1746875 42.1546875 46.3125 42.3125 C41.48505987 42.7813521 39.38962768 44.61037232 36 48 C35.505 48.99 35.505 48.99 35 50 C34.34 50 33.68 50 33 50 C32.773125 50.928125 32.54625 51.85625 32.3125 52.8125 C31.05455441 57.27000285 29.08927093 61.36522852 27.12109375 65.546875 C25.92308231 68.05290139 25.92308231 68.05290139 25 71 C24.34 71 23.68 71 23 71 C22.896875 71.845625 22.79375 72.69125 22.6875 73.5625 C21.9171146 77.41442701 20.63725486 80.44075031 19 84 C18.34 84 17.68 84 17 84 C16.67 85.98 16.34 87.96 16 90 C15.34 90 14.68 90 14 90 C14 91.32 14 92.64 14 94 C11.85423363 94.02685938 9.70837355 94.04633088 7.5625 94.0625 C6.36753906 94.07410156 5.17257813 94.08570313 3.94140625 94.09765625 C1 94 1 94 0 93 C-0.09523905 90.10856849 -0.12553027 87.24107936 -0.11352539 84.34936523 C-0.11367142 83.44213715 -0.11381744 82.53490906 -0.1139679 81.60018921 C-0.11326841 78.58630015 -0.10547434 75.57247207 -0.09765625 72.55859375 C-0.0957922 70.47494033 -0.09436824 68.39128646 -0.09336853 66.30763245 C-0.08954234 60.81176554 -0.0797112 55.31592487 -0.06866455 49.82006836 C-0.0584526 44.21663773 -0.05387137 38.61320287 -0.04882812 33.00976562 C-0.03808902 22.00649886 -0.02101139 11.00325161 0 0 Z " fill="#D48D52" transform="translate(34,76)"/>
<path d="M0 0 C3.10039543 1.75494081 5.48825667 3.48825667 8 6 C8 6.99 8 7.98 8 9 C6.35 9.33 4.7 9.66 3 10 C2.7525 9.030625 2.505 8.06125 2.25 7.0625 C1.8375 6.051875 1.425 5.04125 1 4 C-1.03243548 3.03122943 -1.03243548 3.03122943 -3 3 C-3 3.66 -3 4.32 -3 5 C-3.66 5 -4.32 5 -5 5 C-4.67 6.98 -4.34 8.96 -4 11 C-2.68 11.33 -1.36 11.66 0 12 C-0.02320313 13.12019531 -0.04640625 14.24039063 -0.0703125 15.39453125 C-0.08907237 16.86718084 -0.10727234 18.33983763 -0.125 19.8125 C-0.14175781 20.55048828 -0.15851563 21.28847656 -0.17578125 22.04882812 C-0.21074628 25.91246426 -0.19397555 27.70903668 2 31 C2.125 33.6875 2.125 33.6875 2 36 C1.34 36 0.68 36 0 36 C-0.33 37.98 -0.66 39.96 -1 42 C-1.66 42 -2.32 42 -3 42 C-3.09152344 42.83789062 -3.18304688 43.67578125 -3.27734375 44.5390625 C-4.10804213 48.5174342 -5.68464343 51.8126503 -7.5625 55.375 C-7.89185547 56.01566406 -8.22121094 56.65632813 -8.56054688 57.31640625 C-9.36639482 58.88138632 -10.18218493 60.44124021 -11 62 C-14.23549631 61.28100082 -16.8390781 60.26436876 -20 59 C-20 72.53 -20 86.06 -20 100 C44.68 100 109.36 100 176 100 C176 85.81 176 71.62 176 57 C177.32 56.67 178.64 56.34 180 56 C180.0505939 62.51445205 180.08568856 69.02885368 180.10986328 75.54345703 C180.11993825 77.76092421 180.13359859 79.97837805 180.15087891 82.19580078 C180.17506163 85.37796312 180.18646797 88.55995024 180.1953125 91.7421875 C180.20563507 92.73805878 180.21595764 93.73393005 180.22659302 94.75997925 C180.22674408 95.68078278 180.22689514 96.6015863 180.22705078 97.55029297 C180.231492 98.3630368 180.23593323 99.17578064 180.24050903 100.01315308 C180 102 180 102 178 104 C175.34166354 104.19325521 172.78792483 104.26046573 170.12875366 104.24050903 C169.30625079 104.24221788 168.48374791 104.24392673 167.63632071 104.24568737 C164.86471919 104.2489964 162.09335677 104.23795544 159.32177734 104.22705078 C157.34121201 104.22648697 155.36064626 104.22680263 153.38008118 104.22793579 C147.98983932 104.22851149 142.59968581 104.21672216 137.20946455 104.20278788 C131.5813488 104.19031657 125.9532312 104.18911287 120.32510376 104.18673706 C109.661403 104.18051168 98.99774306 104.16408658 88.33406031 104.14403808 C76.19640292 104.12171195 64.05874362 104.11069393 51.92107081 104.10064721 C26.94735788 104.07972125 1.97368122 104.04452477 -23 104 C-24.14630567 101.70738866 -24.12669318 100.42119544 -24.12939453 97.87329102 C-24.13254669 97.02223282 -24.13569885 96.17117462 -24.13894653 95.29432678 C-24.13591019 93.91306862 -24.13591019 93.91306862 -24.1328125 92.50390625 C-24.13376923 91.55942123 -24.13472595 90.61493622 -24.13571167 89.64183044 C-24.13639293 87.64199761 -24.13454242 85.64216258 -24.13037109 83.64233398 C-24.12502801 80.57856274 -24.13031486 77.5149385 -24.13671875 74.45117188 C-24.13605784 72.51041634 -24.13477642 70.5696609 -24.1328125 68.62890625 C-24.13483673 67.71009171 -24.13686096 66.79127716 -24.13894653 65.84461975 C-24.13579437 64.99040939 -24.13264221 64.13619904 -24.12939453 63.25610352 C-24.12820114 62.12930931 -24.12820114 62.12930931 -24.12698364 60.97975159 C-24 59 -24 59 -23 56 C-23.57234375 55.86722656 -24.1446875 55.73445313 -24.734375 55.59765625 C-26.97650875 55.00619683 -29.08579619 54.26711146 -31.25 53.4375 C-31.95640625 53.16808594 -32.6628125 52.89867187 -33.390625 52.62109375 C-33.92171875 52.41613281 -34.4528125 52.21117187 -35 52 C-33.54301553 43.30560355 -29.24033927 35.28932247 -25.25390625 27.50390625 C-23.91125557 24.8227876 -22.66747634 22.10953455 -21.4375 19.375 C-21.02371094 18.46363281 -20.60992187 17.55226562 -20.18359375 16.61328125 C-19.43862114 14.96844074 -18.70061577 13.32040919 -17.97265625 11.66796875 C-14.40154053 3.93772228 -8.8520607 -0.90020956 0 0 Z " fill="#769ECD" transform="translate(85,120)"/>
<path d="M0 0 C0.72790099 7.74810168 -0.64821886 12.56558074 -5 19 C-6.32 18.67 -7.64 18.34 -9 18 C-8.72285156 17.41992188 -8.44570312 16.83984375 -8.16015625 16.2421875 C-6.11033734 11.82158159 -4.5030622 7.90485647 -4 3 C-13.67691869 5.24795678 -24.41928471 9.34026938 -30 18 C-28.9521672 21.14349841 -28.42086332 21.73251185 -25.9375 23.6875 C-24.968125 24.450625 -23.99875 25.21375 -23 26 C-23.79770724 31.38452386 -27.40302823 34.57007323 -31.4375 37.875 C-37.67371557 43.10968202 -42.27376382 49.87238227 -43.25 58.109375 C-43.37107156 62.13500439 -43.08289615 65.52850642 -41 69 C-37.6402613 71.86565948 -34.5798654 72.53822726 -30.171875 72.34765625 C-23.33406504 71.25311473 -17.89086137 67.46648079 -12.62890625 63.171875 C-11 62 -11 62 -9 62 C-8.77054688 61.4534375 -8.54109375 60.906875 -8.3046875 60.34375 C-6.61986388 57.31712074 -4.47700554 55.04044515 -2.125 52.5 C-0.82949219 51.09234375 -0.82949219 51.09234375 0.4921875 49.65625 C7.26566551 42.48184961 7.26566551 42.48184961 11 42 C12.66666667 42 14.33333333 42 16 42 C16 44.64 16 47.28 16 50 C21.16730378 49.10133847 23.99789046 47.35826336 28 43.9375 C32.11763664 40.4789363 34.58500546 38.77437523 40 39 C40.66 39.66 41.32 40.32 42 41 C41.625 43.625 41.625 43.625 41 46 C40.2575 45.649375 39.515 45.29875 38.75 44.9375 C35.8677274 43.95490707 34.78823655 43.9673198 32 45 C32.99 47.475 32.99 47.475 34 50 C39.6505678 48.23633793 44.83872759 45.78699985 50.171875 43.2421875 C53 42 53 42 55 42 C54.67 44.64 54.34 47.28 54 50 C59.67853635 48.58036591 63.53174216 45.60636039 68 42 C68.66 42.33 69.32 42.66 70 43 C70 44.98 70 46.96 70 49 C70.59167969 48.6390625 71.18335938 48.278125 71.79296875 47.90625 C72.58316406 47.4421875 73.37335938 46.978125 74.1875 46.5 C74.96480469 46.0359375 75.74210937 45.571875 76.54296875 45.09375 C79.24103386 43.89270353 81.0806982 43.79258957 84 44 C83.86328125 45.81640625 83.86328125 45.81640625 83 48 C80.41796875 49.52734375 80.41796875 49.52734375 77.1875 50.9375 C72.52137771 52.97786285 69.73293954 54.63944314 67 59 C66.11259721 61.66220838 65.36333738 64.22588616 64.6875 66.9375 C61.9733419 76.89841703 58.7489333 87.81282628 50 94 C48.35 93.34 46.7 92.68 45 92 C43.79962465 79.51609633 51.35033201 68.31786671 59 59 C59.66 59 60.32 59 61 59 C62.41898766 56.35122304 63.31911019 53.91985181 64 51 C63.46890625 51.30035156 62.9378125 51.60070312 62.390625 51.91015625 C61.68421875 52.29042969 60.9778125 52.67070312 60.25 53.0625 C59.20585937 53.63677734 59.20585937 53.63677734 58.140625 54.22265625 C55.60147367 55.14472033 54.50010495 54.91915623 52 54 C51.34 53.67 50.68 53.34 50 53 C50 51.68 50 50.36 50 49 C45.82135927 50.36766974 41.81817354 51.80165766 38 54 C37.16996757 57.47677815 37.16996757 57.47677815 37 61 C34.63318256 63.32130172 32.08626246 64.81074473 29 66 C26 65.8125 26 65.8125 24 65 C23.375 62.6875 23.375 62.6875 23 60 C23.66 59.01 24.32 58.02 25 57 C25.66 57 26.32 57 27 57 C27 56.34 27 55.68 27 55 C27.66 54.67 28.32 54.34 29 54 C28.67 53.01 28.34 52.02 28 51 C27.41992188 51.30035156 26.83984375 51.60070312 26.2421875 51.91015625 C21.44760449 54.24415293 18.33060149 55.69019072 13 54 C12.01 53.505 12.01 53.505 11 53 C10.195625 53.350625 9.39125 53.70125 8.5625 54.0625 C7.716875 54.371875 6.87125 54.68125 6 55 C5.01 54.34 4.02 53.68 3 53 C2.66226563 53.5053125 2.32453125 54.010625 1.9765625 54.53125 C1.30753906 55.50578125 1.30753906 55.50578125 0.625 56.5 C0.18414062 57.1496875 -0.25671875 57.799375 -0.7109375 58.46875 C-1.13632813 58.9740625 -1.56171875 59.479375 -2 60 C-2.66 60 -3.32 60 -4 60 C-4.23460937 60.5775 -4.46921875 61.155 -4.7109375 61.75 C-8.92077548 69.09808084 -18.53565937 74.36069781 -26.5 76.75 C-32.96356184 77.39635618 -37.42532206 77.67421955 -43 74 C-47.67698334 68.81739684 -48.52631322 65.39438086 -48.4765625 58.50390625 C-47.00683167 47.69777053 -39.91064364 37.94020254 -31.625 31.1875 C-30.75875 30.465625 -29.8925 29.74375 -29 29 C-29 28.34 -29 27.68 -29 27 C-29.99 26.2575 -30.98 25.515 -32 24.75 C-34.46088692 22.75674004 -34.93301007 22.2862297 -35.6875 19.0625 C-34.28127717 12.7984165 -30.07206606 9.84769925 -25 6.375 C-17.31504763 1.69539436 -9.03147634 -2.05199463 0 0 Z M9 46 C8.34 47.32 7.68 48.64 7 50 C7.66 50 8.32 50 9 50 C9.66 48.68 10.32 47.36 11 46 C10.34 46 9.68 46 9 46 Z M28 60 C28.33 60.66 28.66 61.32 29 62 C30.65 60.35 32.3 58.7 34 57 C31.23776722 57 30.10718546 58.31425163 28 60 Z M60 64 C61 66 61 66 61 66 Z M59 66 C54.06617124 72.66066883 49 80.44270651 49 89 C52.08392152 88.31793765 52.08392152 88.31793765 53.28125 86.03125 C58.65074437 76.34570048 58.65074437 76.34570048 59 66 Z " fill="#FCFCFC" transform="translate(171,85)"/>
<path d="M0 0 C0.99 0 1.98 0 3 0 C3 4.95 3 9.9 3 15 C4.175625 14.7525 5.35125 14.505 6.5625 14.25 C10.62895662 13.76058575 13.06316867 14.37287243 16.45703125 16.640625 C19.72973753 19.52392066 21.6097605 22.70734292 22.34375 27.01953125 C22.55983945 31.72848045 21.39355383 35.01074362 19 39 C18.34 39 17.68 39 17 39 C17 42.3 17 45.6 17 49 C15.68 49.66 14.36 50.32 13 51 C12.00156224 53.40882687 12.00156224 53.40882687 12 56 C12.66 56.99 13.32 57.98 14 59 C13.75 60.75 13.75 60.75 13 63 C12.731875 64.19625 12.46375 65.3925 12.1875 66.625 C11 70 11 70 8.875 71.4375 C8.25625 71.623125 7.6375 71.80875 7 72 C5 70.1875 5 70.1875 3 68 C3 67.01 3 66.02 3 65 C-2.28 65 -7.56 65 -13 65 C-13.66 66.65 -14.32 68.3 -15 70 C-17.25 71 -17.25 71 -20 71 C-23.3125 69.5625 -23.3125 69.5625 -26 68 C-26 67.01 -26 66.02 -26 65 C-25.071875 65.495 -24.14375 65.99 -23.1875 66.5 C-20.13472484 68.21289852 -20.13472484 68.21289852 -17 68 C-15.85255669 65.39653203 -14.70698532 62.79226795 -13.5625 60.1875 C-13.23701172 59.44951172 -12.91152344 58.71152344 -12.57617188 57.95117188 C-12.26357422 57.23896484 -11.95097656 56.52675781 -11.62890625 55.79296875 C-11.34088135 55.1383667 -11.05285645 54.48376465 -10.75610352 53.80932617 C-10.09806016 52.23465413 -9.53968631 50.61905892 -9 49 C-8.34 49 -7.68 49 -7 49 C-6.67 47.02 -6.34 45.04 -6 43 C-5.34 43 -4.68 43 -4 43 C-5.30155006 38.92035719 -5.30155006 38.92035719 -7 35 C-7.0969632 33.04362486 -7.12978917 31.08377069 -7.125 29.125 C-7.12886719 27.55105469 -7.12886719 27.55105469 -7.1328125 25.9453125 C-7.01998664 23.44323315 -6.72508762 21.38243077 -6 19 C-7.65 18.67 -9.3 18.34 -11 18 C-11 16.02 -11 14.04 -11 12 C-10.34 12 -9.68 12 -9 12 C-9 11.34 -9 10.68 -9 10 C-4.125 10.875 -4.125 10.875 -3 12 C-2.95936168 13.66617115 -2.957279 15.33388095 -3 17 C-1.35 16.67 0.3 16.34 2 16 C1.484375 15.21625 0.96875 14.4325 0.4375 13.625 C-1.47664133 8.7980349 -0.82535865 5.03170452 0 0 Z " fill="#47413F" transform="translate(91,113)"/>
<path d="M0 0 C0.99 0 1.98 0 3 0 C3.0505939 6.51445205 3.08568856 13.02885368 3.10986328 19.54345703 C3.11993825 21.76092421 3.13359859 23.97837805 3.15087891 26.19580078 C3.17506163 29.37796312 3.18646797 32.55995024 3.1953125 35.7421875 C3.20563507 36.73805878 3.21595764 37.73393005 3.22659302 38.75997925 C3.22674408 39.68078278 3.22689514 40.6015863 3.22705078 41.55029297 C3.231492 42.3630368 3.23593323 43.17578064 3.24050903 44.01315308 C3 46 3 46 1 48 C-1.65833646 48.19325521 -4.21207517 48.26046573 -6.87124634 48.24050903 C-7.69374921 48.24221788 -8.51625209 48.24392673 -9.36367929 48.24568737 C-12.13528081 48.2489964 -14.90664323 48.23795544 -17.67822266 48.22705078 C-19.65878799 48.22648697 -21.63935374 48.22680263 -23.61991882 48.22793579 C-29.01016068 48.22851149 -34.40031419 48.21672216 -39.79053545 48.20278788 C-45.4186512 48.19031657 -51.0467688 48.18911287 -56.67489624 48.18673706 C-67.338597 48.18051168 -78.00225694 48.16408658 -88.66593969 48.14403808 C-100.80359708 48.12171195 -112.94125638 48.11069393 -125.07892919 48.10064721 C-150.05264212 48.07972125 -175.02631878 48.04452477 -200 48 C-201.14818825 45.7036235 -201.12669904 44.41002269 -201.12939453 41.85742188 C-201.13254669 41.00313599 -201.13569885 40.1488501 -201.13894653 39.26867676 C-201.1369223 38.34470093 -201.13489807 37.4207251 -201.1328125 36.46875 C-201.13376923 35.52189331 -201.13472595 34.57503662 -201.13571167 33.5994873 C-201.13639286 31.59545831 -201.1345428 29.59142711 -201.13037109 27.58740234 C-201.125022 24.5126451 -201.13031814 21.43803393 -201.13671875 18.36328125 C-201.13605796 16.41927051 -201.13477677 14.47525986 -201.1328125 12.53125 C-201.13483673 11.60727417 -201.13686096 10.68329834 -201.13894653 9.73132324 C-201.13579437 8.87703735 -201.13264221 8.02275146 -201.12939453 7.14257812 C-201.12859894 6.38916138 -201.12780334 5.63574463 -201.12698364 4.85949707 C-201 3 -201 3 -200 1 C-199.34 1 -198.68 1 -198 1 C-193.4661765 14.60147051 -197 29.66279122 -197 44 C-132.32 44 -67.64 44 -1 44 C-1 29.81 -1 15.62 -1 1 C-0.67 0.67 -0.34 0.34 0 0 Z " fill="#F2F7F9" transform="translate(262,176)"/>
<path d="M0 0 C66.66 0 133.32 0 202 0 C202 15.84 202 31.68 202 48 C201.01 48 200.02 48 199 48 C197.97851617 33.69922637 198 19.33720878 198 5 C133.65 4.67 69.3 4.34 3 4 C3.33 6.31 3.66 8.62 4 11 C4.07392759 12.33434564 4.11842057 13.67118533 4.11352539 15.00756836 C4.11341209 16.05786476 4.11341209 16.05786476 4.11329651 17.12937927 C4.10813522 17.85883255 4.10297394 18.58828583 4.09765625 19.33984375 C4.0962413 20.10680069 4.09482635 20.87375763 4.09336853 21.66395569 C4.08781766 24.0885119 4.07527463 26.51297219 4.0625 28.9375 C4.05747864 30.59179553 4.05291685 32.24609253 4.04882812 33.90039062 C4.03786438 37.93363012 4.02063424 41.96679886 4 46 C2.35 46 0.7 46 -1 46 C-0.67 30.82 -0.34 15.64 0 0 Z " fill="#CCD7EF" transform="translate(62,22)"/>
<path d="M0 0 C2.46999683 2.46999683 2.2968552 3.28214816 2.3125 6.6875 C2.21426414 11.52912442 1.41164166 14.80195711 -1 19 C-1.99 19.33 -2.98 19.66 -4 20 C-3.42978066 14.6496441 -2.79265639 9.32212148 -2 4 C-8.70833906 5.11459197 -14.06474508 7.23650504 -19.9375 10.625 C-21.11372925 11.29269409 -21.11372925 11.29269409 -22.3137207 11.97387695 C-28.3444123 15.4671702 -33.83820093 19.29942632 -39 24 C-39.69867188 24.60714844 -40.39734375 25.21429688 -41.1171875 25.83984375 C-44.22756545 28.69414641 -45.80582743 30.2880339 -46.9375 34.4375 C-46.958125 35.283125 -46.97875 36.12875 -47 37 C-40.62812708 40.96089398 -35.28549641 41.25963637 -27.95507812 41.4296875 C-22.38856969 41.65253354 -18.0725965 42.63987241 -13 45 C-10.88971098 48.16543353 -10.6661465 49.32294983 -11.34375 52.98046875 C-14.54694503 62.83792013 -23.37783863 70.34516301 -32.3125 74.9375 C-38.04696834 77.66160332 -42.67964126 78.40129262 -49 78 C-51.0625 76.8125 -51.0625 76.8125 -52 75 C-52.12625814 70.45470703 -49.42304431 67.67714083 -46.66796875 64.35546875 C-45 63 -45 63 -41 63 C-41.3125 64.9375 -41.3125 64.9375 -42 67 C-43.485 67.495 -43.485 67.495 -45 68 C-46.22520264 71.00847418 -46.22520264 71.00847418 -47 74 C-35.31730606 72.55830585 -26.48350365 67.06090883 -19 58 C-17.1401692 54.82028927 -16.79502318 52.68958268 -17 49 C-23.27430363 46.47982138 -29.63171819 46.31876693 -36.30078125 45.87695312 C-41.48696748 45.46517439 -45.53844445 44.92966069 -50 42 C-52.50304378 38.24543433 -52.45280074 36.45254066 -52 32 C-50.125 28.5625 -50.125 28.5625 -48 26 C-47.34 26 -46.68 26 -46 26 C-45.75894531 25.41734375 -45.51789063 24.8346875 -45.26953125 24.234375 C-38.60850297 12.51096523 -19.72981865 4.62369831 -7.6875 -0.375 C-4.68971119 -1.07216019 -2.90869391 -0.96956464 0 0 Z " fill="#F9FAFC" transform="translate(305,84)"/>
<path d="M0 0 C0.97585304 -0.00525696 0.97585304 -0.00525696 1.97142029 -0.01062012 C4.12623705 -0.01943723 6.28072666 -0.01358856 8.43554688 -0.00683594 C9.93005435 -0.0081826 11.42456141 -0.01012314 12.91906738 -0.01263428 C16.0530209 -0.0155855 19.18686049 -0.01128801 22.32080078 -0.00195312 C26.34279701 0.0094415 30.36452633 0.00288201 34.38651276 -0.00909805 C37.47310404 -0.01631674 40.5596318 -0.0140287 43.64622498 -0.00884247 C45.12943045 -0.00750599 46.61264166 -0.00915363 48.09584045 -0.01380157 C50.16691419 -0.01886705 52.23755254 -0.01115678 54.30859375 0 C55.48836792 0.00159119 56.66814209 0.00318237 57.88366699 0.00482178 C60.65429688 0.25878906 60.65429688 0.25878906 62.65429688 2.25878906 C64.3710398 8.33104842 63.87793103 14.82639418 63.89453125 21.08813477 C63.90428214 23.31791871 63.93536335 25.54679733 63.96679688 27.77636719 C63.97332371 29.19888779 63.97857544 30.62141494 63.98242188 32.04394531 C63.99176758 33.33179932 64.00111328 34.61965332 64.01074219 35.9465332 C63.65429688 39.25878906 63.65429688 39.25878906 60.65429688 43.25878906 C60.65429688 30.05878906 60.65429688 16.85878906 60.65429688 3.25878906 C38.87429687 3.25878906 17.09429687 3.25878906 -5.34570312 3.25878906 C-5.34570312 37.57878906 -5.34570312 71.89878906 -5.34570312 107.25878906 C3.56429687 107.25878906 12.47429688 107.25878906 21.65429688 107.25878906 C21.98429687 108.24878906 22.31429687 109.23878906 22.65429688 110.25878906 C18.72163791 110.30826605 14.78909973 110.34454484 10.85620117 110.36865234 C8.86110069 110.38364401 6.86608741 110.40905637 4.87109375 110.43457031 C3.61748047 110.44101563 2.36386719 110.44746094 1.07226562 110.45410156 C-0.0850708 110.4645752 -1.24240723 110.47504883 -2.43481445 110.48583984 C-5.34570312 110.25878906 -5.34570312 110.25878906 -8.34570312 108.25878906 C-8.70130255 105.14245209 -8.85951548 102.21964201 -8.89257812 99.09472656 C-8.91339951 98.13869537 -8.93422089 97.18266418 -8.95567322 96.19766235 C-9.01897544 93.00975778 -9.05849871 89.82209841 -9.09570312 86.63378906 C-9.13059675 84.41503877 -9.16550916 82.19628878 -9.20043945 79.97753906 C-9.44049073 62.40250669 -9.30645213 44.8325791 -9.03320312 27.25878906 C-9.01632446 26.01635437 -8.9994458 24.77391968 -8.98205566 23.49383545 C-8.93107053 19.9776695 -8.86575943 16.46210475 -8.79492188 12.94628906 C-8.78017319 11.89027496 -8.7654245 10.83426086 -8.75022888 9.74624634 C-8.72719193 8.78487762 -8.70415497 7.82350891 -8.68041992 6.83300781 C-8.66408005 5.99342529 -8.64774017 5.15384277 -8.63090515 4.28881836 C-7.92723982 -0.7197759 -4.13938375 0.00558287 0 0 Z " fill="#201912" transform="translate(34.345703125,67.7412109375)"/>
<path d="M0 0 C0.68707555 2.49064888 1 4.37886292 1 7 C5.16179465 7.34681622 6.82011579 6.63162831 10 4 C10.66 4 11.32 4 12 4 C12.66 2.68 13.32 1.36 14 0 C14.99 0.33 15.98 0.66 17 1 C16.34 3.31 15.68 5.62 15 8 C18.72433382 6.7874262 22.37802806 5.49140021 26 4 C26 3.34 26 2.68 26 2 C27.65 1.34 29.3 0.68 31 0 C31 2.31 31 4.62 31 7 C31.67546875 6.6390625 32.3509375 6.278125 33.046875 5.90625 C33.93890625 5.4421875 34.8309375 4.978125 35.75 4.5 C36.63171875 4.0359375 37.5134375 3.571875 38.421875 3.09375 C41 2 41 2 45 2 C44.796875 3.84375 44.796875 3.84375 44 6 C41.890625 7.34375 41.890625 7.34375 39.25 8.5 C35.31012622 10.24581233 32.05893954 11.92053067 29 15 C27.96012863 17.72677382 27.18174284 20.19087227 26.5 23 C26.08975793 24.52872761 25.6743501 26.0560779 25.25390625 27.58203125 C25.04781738 28.33178223 24.84172852 29.0815332 24.62939453 29.85400391 C22.58195677 36.83498836 19.82005686 44.4496315 15 50 C11.75 51.375 11.75 51.375 9 52 C7.51171875 50.73046875 7.51171875 50.73046875 6 49 C5.40614667 37.32088455 13.50611492 25.19237768 20.5546875 16.40625 C22 15 22 15 24 15 C24.66 13.02 25.32 11.04 26 9 C25.39671875 9.30035156 24.7934375 9.60070312 24.171875 9.91015625 C22.97304688 10.48056641 22.97304688 10.48056641 21.75 11.0625 C20.96109375 11.44535156 20.1721875 11.82820312 19.359375 12.22265625 C16.71164269 13.09500514 15.52620301 13.15691156 13 12 C12.67 11.01 12.34 10.02 12 9 C11.49210937 9.30035156 10.98421875 9.60070312 10.4609375 9.91015625 C6.9222082 11.86507225 4.7421904 13.02748853 0.625 12.875 C-2 12 -2 12 -4 10 C-6.475 11.485 -6.475 11.485 -9 13 C-9.99 12.34 -10.98 11.68 -12 11 C-12.5 8.1875 -12.5 8.1875 -12 5 C-8.4762117 0.08805267 -5.9155397 -0.57995487 0 0 Z M-7 5 C-7 8 -7 8 -7 8 Z M21 23 C14.81326919 29.98624679 10.79421783 37.66794048 10 47 C13.15415698 46.29717239 13.15415698 46.29717239 14.5 43.6640625 C17.8391639 36.89877731 20.34693181 30.36630388 22 23 C21.67 23 21.34 23 21 23 Z " fill="#FDFDFD" transform="translate(322,127)"/>
<path d="M0 0 C3.40188293 1.73186768 6.11394502 3.84427611 8.4375 6.875 C9.62316084 11.35416316 9.44928552 14.90887802 7.6875 19.1875 C6.24346775 21.59422041 4.76199426 23.8184833 3 26 C3.33 26.33 3.66 26.66 4 27 C4.04063832 28.66617115 4.042721 30.33388095 4 32 C2.02 32 0.04 32 -2 32 C-1.67 32.7425 -1.34 33.485 -1 34.25 C0.21041434 37.57863944 0.19448598 40.11400831 -0.5625 43.5625 C-1.2236306 46.1271951 -1.2236306 46.1271951 0 49 C-0.9375 51.1875 -0.9375 51.1875 -2 53 C-3.32 53 -4.64 53 -6 53 C-6 46.07 -6 39.14 -6 32 C-7.65 32 -9.3 32 -11 32 C-11 30.35 -11 28.7 -11 27 C-10.34 27 -9.68 27 -9 27 C-9.42152344 26.51789063 -9.84304687 26.03578125 -10.27734375 25.5390625 C-10.82519531 24.90742188 -11.37304688 24.27578125 -11.9375 23.625 C-12.48277344 22.99851563 -13.02804688 22.37203125 -13.58984375 21.7265625 C-16.03015502 18.73870217 -16.13602117 16.79128333 -16.125 13 C-16.12757812 12.113125 -16.13015625 11.22625 -16.1328125 10.3125 C-16 8 -16 8 -15 6 C-13.35 6 -11.7 6 -10 6 C-10.66 5.01 -11.32 4.02 -12 3 C-7.89199332 0.01235878 -5.04863274 -0.69636314 0 0 Z " fill="#C3DBEC" transform="translate(102,129)"/>
<path d="M0 0 C10.539375 -0.020625 21.07875 -0.04125 31.9375 -0.0625 C36.93571899 -0.07615601 36.93571899 -0.07615601 42.03491211 -0.09008789 C44.65738891 -0.09300675 47.27986616 -0.09555538 49.90234375 -0.09765625 C50.58808975 -0.10026962 51.27383575 -0.102883 51.98036194 -0.10557556 C53.99072139 -0.11285634 56.00110198 -0.1133384 58.01147461 -0.11352539 C59.14620712 -0.115746 60.28093964 -0.11796661 61.45005798 -0.12025452 C64 0 64 0 65 1 C65.08865208 3.8843382 65.11521296 6.74462158 65.09765625 9.62890625 C65.0962413 10.49313705 65.09482635 11.35736786 65.09336853 12.24778748 C65.08775239 15.01939292 65.07519719 17.7909188 65.0625 20.5625 C65.05748708 22.4368478 65.05292381 24.31119685 65.04882812 26.18554688 C65.03777772 30.79039544 65.0205023 35.39518421 65 40 C64.34 40 63.68 40 63 40 C62.97494385 38.94498291 62.9498877 37.88996582 62.92407227 36.80297852 C62.83015891 32.90229372 62.72989966 29.00179375 62.62768555 25.10131836 C62.58427561 23.41060701 62.54260511 21.71985009 62.50268555 20.02905273 C62.44512906 17.60386394 62.38139351 15.17890585 62.31640625 12.75390625 C62.29969376 11.99348526 62.28298126 11.23306427 62.26576233 10.44960022 C62.47908732 6.92917969 62.47908732 6.92917969 61 4 C59.22008076 3.90629376 57.43643261 3.88255729 55.65405273 3.88647461 C53.94239174 3.88658791 53.94239174 3.88658791 52.19615173 3.88670349 C50.33368553 3.89444542 50.33368553 3.89444542 48.43359375 3.90234375 C47.16983414 3.9037587 45.90607452 3.90517365 44.60401917 3.90663147 C41.23875111 3.91129418 37.8735501 3.9202852 34.50830078 3.93133545 C31.0765033 3.94155154 27.64469891 3.94612951 24.21289062 3.95117188 C17.47524176 3.9622262 10.73762475 3.9789829 4 4 C3.97687846 16.36918715 3.95908588 28.73836919 3.94818783 41.10757351 C3.94295859 46.85045062 3.9358602 52.59331301 3.92456055 58.33618164 C3.91373313 63.87339995 3.90772348 69.41060404 3.90512276 74.94783211 C3.90326824 77.06544277 3.89964714 79.18305262 3.89426994 81.30065727 C3.88706144 84.25571274 3.88600898 87.21070871 3.88647461 90.16577148 C3.88287933 91.05049637 3.87928406 91.93522125 3.87557983 92.84675598 C3.49552085 96.73531523 3.49552085 96.73531523 5 100 C7.52596259 100.23653523 10.03107207 100.42173692 12.5625 100.5625 C13.27341797 100.60568359 13.98433594 100.64886719 14.71679688 100.69335938 C16.47761912 100.79971777 18.2387832 100.90038846 20 101 C20.33 101.99 20.66 102.98 21 104 C14.07 104 7.14 104 0 104 C0 69.68 0 35.36 0 0 Z " fill="#D28C51" transform="translate(29,71)"/>
<path d="M0 0 C0.99 0 1.98 0 3 0 C2.85704109 1.39613065 2.71048442 2.79189308 2.5625 4.1875 C2.48128906 4.96480469 2.40007812 5.74210937 2.31640625 6.54296875 C1.99402379 9.04640786 1.49501895 11.52490524 1 14 C19.315 14.495 19.315 14.495 38 15 C38 16.32 38 17.64 38 19 C25.13 19 12.26 19 -1 19 C-2.32 24.28 -3.64 29.56 -5 35 C-7.66811922 44.43632989 -7.66811922 44.43632989 -9.0625 49.08203125 C-10.79801642 55.18290274 -11.3375961 60.66581046 -11 67 C-12.875 67.625 -12.875 67.625 -15 68 C-15.66 67.34 -16.32 66.68 -17 66 C-16.67277221 57.98787711 -14.10635527 50.21602654 -12.0625 42.5 C-11.69809097 41.11080205 -11.33415518 39.72147988 -10.97070312 38.33203125 C-10.29863004 35.7628612 -9.6233298 33.19463437 -8.94555664 30.62695312 C-7.93695605 26.75817688 -6.96967868 22.87871474 -6 19 C-11.61 19 -17.22 19 -23 19 C-23.33 18.01 -23.66 17.02 -24 16 C-21.703463 14.8517315 -20.41686833 14.88438825 -17.8671875 14.90234375 C-17.06152344 14.90556641 -16.25585938 14.90878906 -15.42578125 14.91210938 C-14.58402344 14.92048828 -13.74226563 14.92886719 -12.875 14.9375 C-12.02550781 14.94201172 -11.17601562 14.94652344 -10.30078125 14.95117188 C-8.20049091 14.96297126 -6.1002367 14.98090694 -4 15 C-3.87882812 14.33613281 -3.75765625 13.67226562 -3.6328125 12.98828125 C-2.77452292 8.46575541 -1.96028689 4.20061476 0 0 Z " fill="#F9FAFC" transform="translate(313,90)"/>
<path d="M0 0 C9.24 0 18.48 0 28 0 C28 5.61 28 11.22 28 17 C23.52079403 17.02682159 19.04174649 17.04675177 14.5625 17.0625 C13.28310547 17.07087891 12.00371094 17.07925781 10.68554688 17.08789062 C8.86313477 17.09272461 8.86313477 17.09272461 7.00390625 17.09765625 C5.87799072 17.10289307 4.7520752 17.10812988 3.59204102 17.11352539 C1 17 1 17 0 16 C-0.07325436 13.3013095 -0.09222351 10.63497444 -0.0625 7.9375 C-0.041875 5.318125 -0.02125 2.69875 0 0 Z " fill="#E8AB75" transform="translate(48,94)"/>
<path d="M0 0 C0.66 0 1.32 0 2 0 C2.90208123 2.7062437 3.12227599 4.23850986 3.11352539 7.01245117 C3.11340454 7.824198 3.11328369 8.63594482 3.11315918 9.47229004 C3.10804321 10.32061401 3.10292725 11.16893799 3.09765625 12.04296875 C3.09664917 12.82627563 3.09564209 13.60958252 3.09460449 14.41662598 C3.08937588 17.34026556 3.07541461 20.26388426 3.0625 23.1875 C3.041875 29.725625 3.02125 36.26375 3 43 C28.08 43 53.16 43 79 43 C79 43.33 79 43.66 79 44 C58.28334742 44.89885315 37.61125194 45.0888758 16.87646484 44.96289062 C15.89736145 44.95866089 14.91825806 44.95443115 13.90948486 44.95007324 C12.05118391 44.94184378 10.19289567 44.92939553 8.33465576 44.91223145 C6.22291782 44.90384722 4.11107353 44.94637181 2 45 C1.505 45.495 1.505 45.495 1 46 C30.04 46 59.08 46 89 46 C89 46.33 89 46.66 89 47 C59.63 47 30.26 47 0 47 C-1.14818825 44.7036235 -1.12669904 43.41002269 -1.12939453 40.85742188 C-1.13254669 40.00313599 -1.13569885 39.1488501 -1.13894653 38.26867676 C-1.1369223 37.34470093 -1.13489807 36.4207251 -1.1328125 35.46875 C-1.13376923 34.52189331 -1.13472595 33.57503662 -1.13571167 32.5994873 C-1.13639286 30.59545831 -1.1345428 28.59142711 -1.13037109 26.58740234 C-1.125022 23.5126451 -1.13031814 20.43803393 -1.13671875 17.36328125 C-1.13605796 15.41927051 -1.13477677 13.47525986 -1.1328125 11.53125 C-1.13483673 10.60727417 -1.13686096 9.68329834 -1.13894653 8.73132324 C-1.13579437 7.87703735 -1.13264221 7.02275146 -1.12939453 6.14257812 C-1.12859894 5.38916138 -1.12780334 4.63574463 -1.12698364 3.85949707 C-1 2 -1 2 0 0 Z " fill="#E4EDF4" transform="translate(62,177)"/>
<path d="M0 0 C2.25 0.0625 2.25 0.0625 5 1 C8.86865978 6.12336026 9.70577138 9.64805758 9 16 C7.5 19.5 7.5 19.5 6 22 C5.34 22 4.68 22 4 22 C4 25.3 4 28.6 4 32 C2.68 32.66 1.36 33.32 0 34 C-0.99843776 36.40882687 -0.99843776 36.40882687 -1 39 C-0.34 39.99 0.32 40.98 1 42 C0.75 43.75 0.75 43.75 0 46 C-0.268125 47.19625 -0.53625 48.3925 -0.8125 49.625 C-2 53 -2 53 -4.125 54.4375 C-4.74375 54.623125 -5.3625 54.80875 -6 55 C-8.75950066 52.50754779 -10.62030099 50.79699009 -11 47 C-10.67 46.34 -10.34 45.68 -10 45 C-14.62 45 -19.24 45 -24 45 C-23.67 44.01 -23.34 43.02 -23 42 C-22.36191406 41.93941406 -21.72382812 41.87882812 -21.06640625 41.81640625 C-20.24011719 41.73261719 -19.41382812 41.64882812 -18.5625 41.5625 C-17.73878906 41.48128906 -16.91507812 41.40007812 -16.06640625 41.31640625 C-14.01337975 41.21069185 -14.01337975 41.21069185 -13 40 C-12.63239269 37.67182036 -12.29758419 35.3381615 -12 33 C-12.66 32.67 -13.32 32.34 -14 32 C-13.979375 33.134375 -13.95875 34.26875 -13.9375 35.4375 C-14 39 -14 39 -15 40 C-16.99958364 40.04080783 -19.00045254 40.04254356 -21 40 C-20.67 37.69 -20.34 35.38 -20 33 C-19.34 33 -18.68 33 -18 33 C-17.67 31.02 -17.34 29.04 -17 27 C-15.68 26.67 -14.36 26.34 -13 26 C-13 27.65 -13 29.3 -13 31 C-11.35 31 -9.7 31 -8 31 C-8 37.93 -8 44.86 -8 52 C-6.02 51.505 -6.02 51.505 -4 51 C-3.10326269 46.96468212 -2.68313715 43.47869329 -3.5625 39.375 C-4 37 -4 37 -3 35 C-3.39938767 32.90178785 -3.39938767 32.90178785 -4 31 C-2.02 31 -0.04 31 2 31 C1.566875 29.96875 1.13375 28.9375 0.6875 27.875 C0.460625 26.59625 0.23375 25.3175 0 24 C2.3125 20.75 2.3125 20.75 5 18 C6.51149553 13.46551342 6.77441645 9.62258684 4.6875 5.25 C3.23213658 3.30951544 1.79576776 1.62474226 0 0 Z " fill="#645343" transform="translate(104,130)"/>
<path d="M0 0 C8.70115581 -0.0462833 17.40226942 -0.08184872 26.10352135 -0.10362434 C30.14360264 -0.11407407 34.18359989 -0.1282548 38.22363281 -0.15087891 C42.12044733 -0.17256512 46.01718087 -0.18455967 49.91405106 -0.18975449 C51.40285136 -0.19345786 52.8916471 -0.20068938 54.38041306 -0.21146011 C56.46122667 -0.22591919 58.54170306 -0.22798033 60.62255859 -0.22705078 C61.80836517 -0.231492 62.99417175 -0.23593323 64.21591187 -0.24050903 C67 0 67 0 69 2 C70.71674292 8.07225936 70.22363416 14.56760511 70.24023438 20.8293457 C70.24998526 23.05912965 70.28106648 25.28800827 70.3125 27.51757812 C70.31902684 28.94009873 70.32427856 30.36262587 70.328125 31.78515625 C70.3374707 33.07301025 70.34681641 34.36086426 70.35644531 35.68774414 C70 39 70 39 67 43 C67 29.8 67 16.6 67 3 C59.90564453 3.10828125 59.90564453 3.10828125 52.66796875 3.21875 C49.6738285 3.26434798 46.67968806 3.30993256 43.68554688 3.35546875 C38.93188275 3.42776581 34.17821943 3.50011279 29.42456055 3.57275391 C25.59259143 3.63130749 21.76061901 3.68963983 17.92864418 3.74781799 C16.46580192 3.77006633 15.00296088 3.79239474 13.54012108 3.81480408 C11.49314051 3.8461483 9.44615582 3.87720928 7.39916992 3.90820312 C6.23334885 3.92596802 5.06752777 3.94373291 3.86637878 3.96203613 C1.91104974 3.98793357 -0.04449946 4 -2 4 C-1.34 2.68 -0.68 1.36 0 0 Z " fill="#040406" transform="translate(28,68)"/>
<path d="M0 0 C10.539375 -0.020625 21.07875 -0.04125 31.9375 -0.0625 C36.93571899 -0.07615601 36.93571899 -0.07615601 42.03491211 -0.09008789 C44.65738891 -0.09300675 47.27986616 -0.09555538 49.90234375 -0.09765625 C50.58808975 -0.10026962 51.27383575 -0.102883 51.98036194 -0.10557556 C53.99072139 -0.11285634 56.00110198 -0.1133384 58.01147461 -0.11352539 C59.14620712 -0.115746 60.28093964 -0.11796661 61.45005798 -0.12025452 C64 0 64 0 65 1 C65.08865208 3.8843382 65.11521296 6.74462158 65.09765625 9.62890625 C65.0962413 10.49313705 65.09482635 11.35736786 65.09336853 12.24778748 C65.08775239 15.01939292 65.07519719 17.7909188 65.0625 20.5625 C65.05748708 22.4368478 65.05292381 24.31119685 65.04882812 26.18554688 C65.03777772 30.79039544 65.0205023 35.39518421 65 40 C64.34 40 63.68 40 63 40 C62.97494385 38.95021973 62.9498877 37.90043945 62.92407227 36.81884766 C62.83003733 32.93118676 62.7298072 29.04370619 62.62768555 25.15625 C62.58432183 23.47237358 62.5426478 21.78845277 62.50268555 20.10449219 C62.44501766 17.68671276 62.3813135 15.26915705 62.31640625 12.8515625 C62.29969376 12.0963028 62.28298126 11.34104309 62.26576233 10.56289673 C62.22444893 6.65260201 62.22444893 6.65260201 61 3 C61.66 3 62.32 3 63 3 C63 2.34 63 1.68 63 1 C42.54 1 22.08 1 1 1 C1 34.66 1 68.32 1 103 C6.94 103 12.88 103 19 103 C19.33 102.34 19.66 101.68 20 101 C20.33 101.99 20.66 102.98 21 104 C14.07 104 7.14 104 0 104 C0 69.68 0 35.36 0 0 Z " fill="#9A663B" transform="translate(29,71)"/>
<path d="M0 0 C0.99 0 1.98 0 3 0 C3 15.18 3 30.36 3 46 C2.34 45.34 1.68 44.68 1 44 C0.67 44.33 0.34 44.66 0 45 C-2.05556661 45.09413687 -4.11440181 45.11742998 -6.17211914 45.11352539 C-7.13794167 45.11374443 -7.13794167 45.11374443 -8.12327576 45.1139679 C-10.26060303 45.11326885 -12.39784413 45.10547691 -14.53515625 45.09765625 C-16.01346285 45.09579204 -17.49177007 45.09436815 -18.97007751 45.09336853 C-22.86798802 45.08954359 -26.76586149 45.07971352 -30.66375732 45.06866455 C-34.63846333 45.05844992 -38.61317529 45.0538708 -42.58789062 45.04882812 C-50.391944 45.03809122 -58.19596682 45.02101509 -66 45 C-66 44.67 -66 44.34 -66 44 C-44.55 44 -23.1 44 -1 44 C-1.03960616 29.89365776 -1.03960616 29.89365776 -1.09008789 15.78735352 C-1.09300696 14.02620504 -1.09555554 12.26505589 -1.09765625 10.50390625 C-1.10277222 9.58057495 -1.10788818 8.65724365 -1.11315918 7.70593262 C-1.11334045 6.39658752 -1.11334045 6.39658752 -1.11352539 5.06079102 C-1.115746 4.29912125 -1.11796661 3.53745148 -1.12025452 2.75270081 C-1 1 -1 1 0 0 Z " fill="#E6EBF7" transform="translate(262,176)"/>
<path d="M0 0 C0.66 0.33 1.32 0.66 2 1 C2 4.3 2 7.6 2 11 C0.9790625 10.505 0.9790625 10.505 -0.0625 10 C-3.76275346 8.74033925 -6.1011897 8.47134776 -10 9 C-16.31154279 12.21486824 -19.48409961 16.54367115 -22 23 C-22.31324219 23.78632813 -22.62648438 24.57265625 -22.94921875 25.3828125 C-23.61770655 27.06856435 -24.28164767 28.75612516 -24.94140625 30.4453125 C-25.97946252 32.95043724 -27.13736474 35.33799517 -28.375 37.75 C-32.0361993 44.90184584 -35.45764321 52.37292964 -38 60 C-37.38511719 60.20496094 -36.77023438 60.40992188 -36.13671875 60.62109375 C-32.7578125 61.74739583 -29.37890625 62.87369792 -26 64 C-26 64.99 -26 65.98 -26 67 C-27.65 66.67 -29.3 66.34 -31 66 C-31.33 65.01 -31.66 64.02 -32 63 C-33.98 63 -35.96 63 -38 63 C-39.49821059 59.62902617 -40 57.79557881 -40 54 C-39.34 54 -38.68 54 -38 54 C-37.505 51.03 -37.505 51.03 -37 48 C-36.34 48 -35.68 48 -35 48 C-34.896875 47.154375 -34.79375 46.30875 -34.6875 45.4375 C-33.9171146 41.58557299 -32.63725486 38.55924969 -31 35 C-30.34 35 -29.68 35 -29 35 C-28.90847656 34.17242187 -28.81695312 33.34484375 -28.72265625 32.4921875 C-27.86175793 28.33195452 -26.29488923 24.92069443 -24.4375 21.125 C-24.10814453 20.43664062 -23.77878906 19.74828125 -23.43945312 19.0390625 C-22.63304639 17.3561267 -21.81745506 15.67759707 -21 14 C-20.34 14 -19.68 14 -19 14 C-18.773125 13.4225 -18.54625 12.845 -18.3125 12.25 C-16.5609201 9.2472916 -14.98093817 7.81448411 -12 6 C-9.23853229 5.67210773 -6.79666324 5.81039571 -4 6 C-3.566875 5.071875 -3.566875 5.071875 -3.125 4.125 C-2 2 -2 2 0 0 Z " fill="#484341" transform="translate(88,112)"/>
<path d="M0 0 C9.9 0 19.8 0 30 0 C31.1353654 2.27073079 31.12892412 3.54283279 31.1328125 6.0625 C31.13474609 7.25746094 31.13474609 7.25746094 31.13671875 8.4765625 C31.13285156 9.30929688 31.12898438 10.14203125 31.125 11 C31.13080078 12.24910156 31.13080078 12.24910156 31.13671875 13.5234375 C31.13542969 14.32007812 31.13414063 15.11671875 31.1328125 15.9375 C31.13168457 16.66839844 31.13055664 17.39929688 31.12939453 18.15234375 C31 20 31 20 30 22 C20.1 22 10.2 22 0 22 C-1.1353654 19.72926921 -1.12892412 18.45716721 -1.1328125 15.9375 C-1.13410156 15.14085938 -1.13539062 14.34421875 -1.13671875 13.5234375 C-1.13285156 12.69070312 -1.12898438 11.85796875 -1.125 11 C-1.13080078 9.75089844 -1.13080078 9.75089844 -1.13671875 8.4765625 C-1.13542969 7.67992188 -1.13414063 6.88328125 -1.1328125 6.0625 C-1.13168457 5.33160156 -1.13055664 4.60070312 -1.12939453 3.84765625 C-1 2 -1 2 0 0 Z M1 3 C0.979375 5.619375 0.95875 8.23875 0.9375 10.9375 C0.928396 11.7637085 0.91929199 12.58991699 0.90991211 13.44116211 C0.90276055 15.29433759 0.9497148 17.14749308 1 19 C2.07029129 20.29545448 2.07029129 20.29545448 4.59204102 20.11352539 C5.71795654 20.10828857 6.84387207 20.10305176 8.00390625 20.09765625 C9.82631836 20.09282227 9.82631836 20.09282227 11.68554688 20.08789062 C12.96494141 20.07951172 14.24433594 20.07113281 15.5625 20.0625 C17.48739258 20.05573242 17.48739258 20.05573242 19.45117188 20.04882812 C22.6341342 20.03699555 25.81707274 20.01905944 29 20 C29 14.39 29 8.78 29 3 C19.76 3 10.52 3 1 3 Z " fill="#573C25" transform="translate(47,91)"/>
<path d="M0 0 C0.66 0 1.32 0 2 0 C2.01981934 1.03930664 2.03963867 2.07861328 2.06005859 3.14941406 C2.13622124 7.01114836 2.224922 10.8725111 2.31738281 14.73388672 C2.35562857 16.40405941 2.39048915 18.07431323 2.421875 19.74462891 C2.46762161 22.14775557 2.52559925 24.55032584 2.5859375 26.953125 C2.59748871 27.69806213 2.60903992 28.44299927 2.62094116 29.21051025 C2.7544331 34.42607591 2.7544331 34.42607591 5 39 C5.94875 39.474375 6.8975 39.94875 7.875 40.4375 C11.56585334 42.28292667 13.02787301 43.35915018 15 47 C15.32284833 50.69192684 15.23298256 54.3046377 15 58 C13.02 58.495 13.02 58.495 11 59 C11.06960937 57.87851563 11.06960937 57.87851563 11.140625 56.734375 C11.53487373 50.70427401 11.53487373 50.70427401 9.1875 45.375 C6.96231063 43.85569673 6.96231063 43.85569673 4 43 C4 47.29 4 51.58 4 56 C4.66 56.33 5.32 56.66 6 57 C4.35 57 2.7 57 1 57 C0.67 38.19 0.34 19.38 0 0 Z " fill="#322216" transform="translate(93,71)"/>
<path d="M0 0 C2.25 0.0625 2.25 0.0625 5 1 C8.86865978 6.12336026 9.70577138 9.64805758 9 16 C7.5 19.5 7.5 19.5 6 22 C5.34 22 4.68 22 4 22 C4 25.3 4 28.6 4 32 C2.68 32.66 1.36 33.32 0 34 C-0.99843776 36.40882687 -0.99843776 36.40882687 -1 39 C-0.34 39.99 0.32 40.98 1 42 C0.75 43.75 0.75 43.75 0 46 C-0.268125 47.19625 -0.53625 48.3925 -0.8125 49.625 C-2 53 -2 53 -4.125 54.4375 C-5.053125 54.7159375 -5.053125 54.7159375 -6 55 C-8 53.1875 -8 53.1875 -10 51 C-10 50.01 -10 49.02 -10 48 C-9.34 48 -8.68 48 -8 48 C-8 49.32 -8 50.64 -8 52 C-6.02 51.505 -6.02 51.505 -4 51 C-3.10326269 46.96468212 -2.68313715 43.47869329 -3.5625 39.375 C-4 37 -4 37 -3 35 C-3.39938767 32.90178785 -3.39938767 32.90178785 -4 31 C-2.02 31 -0.04 31 2 31 C1.566875 29.96875 1.13375 28.9375 0.6875 27.875 C0.460625 26.59625 0.23375 25.3175 0 24 C2.3125 20.75 2.3125 20.75 5 18 C6.51149553 13.46551342 6.77441645 9.62258684 4.6875 5.25 C3.23213658 3.30951544 1.79576776 1.62474226 0 0 Z " fill="#718487" transform="translate(104,130)"/>
<path d="M0 0 C0.804375 0.4640625 0.804375 0.4640625 1.625 0.9375 C4.3984957 2.17827439 7.00042837 2.5909675 10 3 C10.06058594 3.83144531 10.12117188 4.66289062 10.18359375 5.51953125 C10.26738281 6.60621094 10.35117188 7.69289062 10.4375 8.8125 C10.55931641 10.43091797 10.55931641 10.43091797 10.68359375 12.08203125 C10.90212461 15.05989905 10.90212461 15.05989905 12 18 C12 22 12 22 11.4375 24.5625 C10.7763694 27.1271951 10.7763694 27.1271951 12 30 C11.0625 32.1875 11.0625 32.1875 10 34 C8.68 34 7.36 34 6 34 C5.97062562 30.66668561 5.95307666 27.33340517 5.9375 24 C5.92912109 23.06542969 5.92074219 22.13085938 5.91210938 21.16796875 C5.89291108 15.67725599 6.1865807 10.43133519 7 5 C6.401875 4.87625 5.80375 4.7525 5.1875 4.625 C3 4 3 4 0 2 C0 1.34 0 0.68 0 0 Z " fill="#B2C8D8" transform="translate(90,148)"/>
<path d="M0 0 C0.33 0 0.66 0 1 0 C1.33 30.69 1.66 61.38 2 93 C8.93 93.495 8.93 93.495 16 94 C16 94.66 16 95.32 16 96 C13.52076199 96.02685095 11.0418116 96.04676547 8.5625 96.0625 C7.85544922 96.07087891 7.14839844 96.07925781 6.41992188 96.08789062 C4.61306441 96.09653588 2.80612397 96.05220011 1 96 C-0.88885195 94.11114805 -0.12010635 91.35948241 -0.12442017 88.84675598 C-0.12082489 87.9620311 -0.11722961 87.07730621 -0.11352539 86.16577148 C-0.11367142 85.23903625 -0.11381744 84.31230103 -0.1139679 83.35748291 C-0.11326838 80.27866313 -0.10547421 77.19990303 -0.09765625 74.12109375 C-0.09579221 71.99259982 -0.09436824 69.86410547 -0.09336853 67.73561096 C-0.08954228 62.1213768 -0.07971108 56.50716832 -0.06866455 50.89294434 C-0.05845273 45.16886747 -0.0538714 39.44478647 -0.04882812 33.72070312 C-0.03808891 22.48045744 -0.0210112 11.24023085 0 0 Z " fill="#3C2817" transform="translate(33,76)"/>
<path d="M0 0 C0.98120464 3.05263664 0.98120464 4.94736336 0 8 C-0.66 8 -1.32 8 -2 8 C-1.67 8.99 -1.34 9.98 -1 11 C-1.33 11.66 -1.66 12.32 -2 13 C2.62 13 7.24 13 12 13 C11.67 13.99 11.34 14.98 11 16 C6.05 16 1.1 16 -4 16 C-4.99 18.475 -4.99 18.475 -6 21 C-8.25 22 -8.25 22 -11 22 C-14.3125 20.5625 -14.3125 20.5625 -17 19 C-17 18.01 -17 17.02 -17 16 C-16.071875 16.495 -15.14375 16.99 -14.1875 17.5 C-11.13472484 19.21289852 -11.13472484 19.21289852 -8 19 C-6.85255669 16.39653203 -5.70698532 13.79226795 -4.5625 11.1875 C-4.23701172 10.44951172 -3.91152344 9.71152344 -3.57617188 8.95117188 C-3.26357422 8.23896484 -2.95097656 7.52675781 -2.62890625 6.79296875 C-2.34088135 6.1383667 -2.05285645 5.48376465 -1.75610352 4.80932617 C-1.09806016 3.23465413 -0.53968631 1.61905892 0 0 Z " fill="#2B3949" transform="translate(82,162)"/>
<path d="M0 0 C0.17603061 4.13671933 -0.22629015 6.08618173 -2.94140625 9.29296875 C-8.20776381 14.21318074 -14.00767874 18.86550193 -21 21 C-23.2890625 20.6171875 -23.2890625 20.6171875 -25 20 C-24.2575 19.5875 -23.515 19.175 -22.75 18.75 C-20.02372677 17.15478892 -20.02372677 17.15478892 -18.1875 15.1875 C-15.0931356 12.0931356 -11.67226085 9.38458496 -8 7 C-7.34 7 -6.68 7 -6 7 C-5.731875 6.401875 -5.46375 5.80375 -5.1875 5.1875 C-2.37142857 0 -2.37142857 0 0 0 Z " fill="#F3F6F9" transform="translate(168,140)"/>
<path d="M0 0 C0.99 0 1.98 0 3 0 C3 4.95 3 9.9 3 15 C4.258125 14.79375 5.51625 14.5875 6.8125 14.375 C10.4014758 13.78664331 10.75073878 13.83382585 14 16 C11 17 11 17 7.6875 16.875 C3.6454313 17.01201928 1.51395525 18.12044254 -2 20 C-2.66 19.67 -3.32 19.34 -4 19 C-4 18.01 -4 17.02 -4 16 C-5.65 16.33 -7.3 16.66 -9 17 C-9.33 15.68 -9.66 14.36 -10 13 C-9.34 13 -8.68 13 -8 13 C-6.37485532 11.54166642 -6.37485532 11.54166642 -5 10 C-3 12 -3 12 -2.875 14.625 C-2.91625 15.40875 -2.9575 16.1925 -3 17 C-1.35 16.67 0.3 16.34 2 16 C1.484375 15.21625 0.96875 14.4325 0.4375 13.625 C-1.47664133 8.7980349 -0.82535865 5.03170452 0 0 Z " fill="#635141" transform="translate(91,113)"/>
<path d="M0 0 C3.96 0 7.92 0 12 0 C12.33 2.97 12.66 5.94 13 9 C11.20906809 9.08086147 9.41710372 9.13912702 7.625 9.1875 C6.12839844 9.23970703 6.12839844 9.23970703 4.6015625 9.29296875 C3.74304687 9.19628906 2.88453125 9.09960938 2 9 C1.34 8.01 0.68 7.02 0 6 C2.475 6.495 2.475 6.495 5 7 C4.67 6.34 4.34 5.68 4 5 C1.97536745 4.34786708 1.97536745 4.34786708 0 4 C0 2.68 0 1.36 0 0 Z " fill="#C99465" transform="translate(50,98)"/>
<path d="M0 0 C9.9 0 19.8 0 30 0 C31.70913373 3.41826747 31.18458479 7.23354763 31.1875 11 C31.19974609 11.83273438 31.21199219 12.66546875 31.22460938 13.5234375 C31.22750977 14.71839844 31.22750977 14.71839844 31.23046875 15.9375 C31.23457764 16.66839844 31.23868652 17.39929688 31.24291992 18.15234375 C31 20 31 20 29 22 C29 15.73 29 9.46 29 3 C27.07414062 3.03480469 25.14828125 3.06960937 23.1640625 3.10546875 C20.65105035 3.13359948 18.13802882 3.1609004 15.625 3.1875 C14.35398437 3.21263672 13.08296875 3.23777344 11.7734375 3.26367188 C10.56171875 3.27333984 9.35 3.28300781 8.1015625 3.29296875 C6.98088379 3.3086792 5.86020508 3.32438965 4.70556641 3.34057617 C3.81272949 3.22818604 2.91989258 3.1157959 2 3 C1.34 2.01 0.68 1.02 0 0 Z " fill="#8B603C" transform="translate(47,91)"/>
<path d="M0 0 C0.66 0 1.32 0 2 0 C2 11.55 2 23.1 2 35 C2.66 35 3.32 35 4 35 C4 35.66 4 36.32 4 37 C3.01 37 2.02 37 1 37 C1 40.3 1 43.6 1 47 C0.67 47 0.34 47 0 47 C-1.34859067 37.27016806 -0.88970676 27.65950749 -0.5625 17.875 C-0.50917225 16.13803895 -0.45643294 14.40105973 -0.40429688 12.6640625 C-0.27631757 8.44246816 -0.14036715 4.22119986 0 0 Z " fill="#422C1A" transform="translate(90,76)"/>
<path d="M0 0 C9.24 0 18.48 0 28 0 C28.33 0.99 28.66 1.98 29 3 C19.76 3 10.52 3 1 3 C0.67 2.01 0.34 1.02 0 0 Z " fill="#000000" transform="translate(28,175)"/>
<path d="M0 0 C0.66 0 1.32 0 2 0 C2 12.87 2 25.74 2 39 C1.34 39 0.68 39 0 39 C-0.02505615 37.95021973 -0.0501123 36.90043945 -0.07592773 35.81884766 C-0.16996267 31.93118676 -0.2701928 28.04370619 -0.37231445 24.15625 C-0.41567817 22.47237358 -0.4573522 20.78845277 -0.49731445 19.10449219 C-0.55498234 16.68671276 -0.6186865 14.26915705 -0.68359375 11.8515625 C-0.70030624 11.0963028 -0.71701874 10.34104309 -0.73423767 9.56289673 C-0.77555107 5.65260201 -0.77555107 5.65260201 -2 2 C-1.34 2 -0.68 2 0 2 C0 1.34 0 0.68 0 0 Z " fill="#B07544" transform="translate(92,72)"/>
<path d="M0 0 C0.66 0.33 1.32 0.66 2 1 C2 4.3 2 7.6 2 11 C0.9790625 10.505 0.9790625 10.505 -0.0625 10 C-4.35097604 8.54009326 -8.19975091 8.26143627 -12.4375 10 C-12.953125 10.33 -13.46875 10.66 -14 11 C-14.66 10.34 -15.32 9.68 -16 9 C-14.09598862 7.09598862 -12.66574314 6.06479561 -9.953125 5.80078125 C-7.96766727 5.8113422 -5.9830086 5.90084957 -4 6 C-3.566875 5.071875 -3.566875 5.071875 -3.125 4.125 C-2 2 -2 2 0 0 Z " fill="#584536" transform="translate(88,112)"/>
<path d="M0 0 C2.97 0.99 5.94 1.98 9 3 C9 12.24 9 21.48 9 31 C8.34 31 7.68 31 7 31 C7 22.42 7 13.84 7 5 C5.68 4.67 4.36 4.34 3 4 C2.01 3.34 1.02 2.68 0 2 C0 1.34 0 0.68 0 0 Z " fill="#8595A1" transform="translate(90,148)"/>
<path d="M0 0 C0.99 0.33 1.98 0.66 3 1 C2.278125 1.7425 1.55625 2.485 0.8125 3.25 C-2.41458513 7.08786113 -3.97659496 11.44863372 -5.796875 16.07421875 C-7.25009135 19.6081767 -9.00454903 22.74815398 -11 26 C-11.66 26 -12.32 26 -13 26 C-13.33 27.32 -13.66 28.64 -14 30 C-14.33 29.34 -14.66 28.68 -15 28 C-14.505 26.515 -14.505 26.515 -14 25 C-13.34 25 -12.68 25 -12 25 C-11.90847656 24.17242187 -11.81695312 23.34484375 -11.72265625 22.4921875 C-10.86175793 18.33195452 -9.29488923 14.92069443 -7.4375 11.125 C-7.10814453 10.43664062 -6.77878906 9.74828125 -6.43945312 9.0390625 C-5.63304639 7.3561267 -4.81745506 5.67759707 -4 4 C-3.34 4 -2.68 4 -2 4 C-1.34 2.68 -0.68 1.36 0 0 Z " fill="#53463D" transform="translate(71,122)"/>
<path d="M0 0 C2.25 0.0625 2.25 0.0625 5 1 C8.86865978 6.12336026 9.70577138 9.64805758 9 16 C7.5 19.5 7.5 19.5 6 22 C5.34 22 4.68 22 4 22 C4 24.97 4 27.94 4 31 C2.45428722 28.68143083 1.20381448 26.49361571 0 24 C1.26953125 22.53515625 2.5390625 21.0703125 3.80859375 19.60546875 C6.48848769 15.99420184 6.29803484 12.32150525 6 8 C4.46036426 4.77409655 2.64430181 2.39246354 0 0 Z " fill="#778285" transform="translate(104,130)"/>
<path d="M0 0 C0.99 0.33 1.98 0.66 3 1 C2.01 2.485 2.01 2.485 1 4 C0.34 3.67 -0.32 3.34 -1 3 C-0.67 3.99 -0.34 4.98 0 6 C1.65 6 3.3 6 5 6 C5 6.99 5 7.98 5 9 C8.65079826 10.61064629 12.0507432 11.44894091 16 12 C16 12.33 16 12.66 16 13 C12.04 13 8.08 13 4 13 C4 11.68 4 10.36 4 9 C3.195625 9.020625 2.39125 9.04125 1.5625 9.0625 C-1 9 -1 9 -2 8 C-2.04080783 6.00041636 -2.04254356 3.99954746 -2 2 C-1.34 2 -0.68 2 0 2 C0 1.34 0 0.68 0 0 Z " fill="#323437" transform="translate(82,123)"/>
<path d="M0 0 C0.042721 1.66611905 0.04063832 3.33382885 0 5 C-1 6 -1 6 -3.1875 6.1875 C-6.39035942 5.97397604 -9.00198135 5.11554182 -12 4 C-11.34 3.34 -10.68 2.68 -10 2 C-10.33 1.34 -10.66 0.68 -11 0 C-7.01803543 -1.05404945 -4.01804691 -0.84098656 0 0 Z " fill="#8797A3" transform="translate(102,133)"/>
<path d="M0 0 C1.2065625 0.0309375 1.2065625 0.0309375 2.4375 0.0625 C2.7675 1.7125 3.0975 3.3625 3.4375 5.0625 C2.4475 5.5575 2.4475 5.5575 1.4375 6.0625 C2.0975 6.3925 2.7575 6.7225 3.4375 7.0625 C3.4375 7.7225 3.4375 8.3825 3.4375 9.0625 C1.1275 9.0625 -1.1825 9.0625 -3.5625 9.0625 C-3.66015625 2.91015625 -3.66015625 2.91015625 -3.5625 1.0625 C-2.5625 0.0625 -2.5625 0.0625 0 0 Z " fill="#7B5B3E" transform="translate(68.5625,97.9375)"/>
<path d="M0 0 C0.66 0 1.32 0 2 0 C4.29404844 3.44107266 4.26293056 4.96839809 4 9 C3 10 3 10 -0.0625 10.0625 C-1.031875 10.041875 -2.00125 10.02125 -3 10 C-2.67 7.69 -2.34 5.38 -2 3 C-1.34 3 -0.68 3 0 3 C0 2.01 0 1.02 0 0 Z " fill="#C7854D" transform="translate(86,160)"/>
<path d="M0 0 C5.7282577 -0.45826062 8.4998494 0.44174139 13 4 C15 6 15 6 15 9 C13.35 9.33 11.7 9.66 10 10 C9.7525 9.05125 9.505 8.1025 9.25 7.125 C8.3060866 3.98698069 8.3060866 3.98698069 6.1875 2.625 C3.69940916 1.9141169 1.57533152 1.85692603 -1 2 C-0.67 1.34 -0.34 0.68 0 0 Z " fill="#607FA4" transform="translate(78,120)"/>
<path d="M0 0 C1.39456452 0.00667256 2.78911118 0.01863093 4.18359375 0.03515625 C4.89451172 0.03966797 5.60542969 0.04417969 6.33789062 0.04882812 C8.09899388 0.06064761 9.86005411 0.07858362 11.62109375 0.09765625 C11.29109375 1.08765625 10.96109375 2.07765625 10.62109375 3.09765625 C8.68389997 3.15171747 6.74627454 3.1904765 4.80859375 3.22265625 C3.72964844 3.24585938 2.65070313 3.2690625 1.5390625 3.29296875 C-1.37890625 3.09765625 -1.37890625 3.09765625 -4.37890625 1.09765625 C-3.37890625 0.09765625 -3.37890625 0.09765625 0 0 Z " fill="#010000" transform="translate(82.37890625,174.90234375)"/>
<path d="M0 0 C2.28804937 1.65883579 3.56463437 2.62283307 5 5 C5.44207004 8.70298665 5.29251428 12.28831877 5 16 C3.68 16.33 2.36 16.66 1 17 C1.33 12.71 1.66 8.42 2 4 C1.34 3.67 0.68 3.34 0 3 C0 2.01 0 1.02 0 0 Z " fill="#152536" transform="translate(103,113)"/>
<path d="M0 0 C2.48368147 4.12329932 2.0832231 7.56758104 1.875 12.24609375 C2.0105188 15.23174231 2.7482118 17.3057215 4 20 C3.34 20.66 2.68 21.32 2 22 C-1.78254451 16.32618324 -1.48203104 10.65573622 -1 4 C-0.70749141 2.65711966 -0.39087134 1.31761469 0 0 Z " fill="#485868" transform="translate(85,132)"/>
<path d="M0 0 C1.98 0.495 1.98 0.495 4 1 C4.33 2.65 4.66 4.3 5 6 C4.34 6 3.68 6 3 6 C4.32 7.65 5.64 9.3 7 11 C6.01 11.495 6.01 11.495 5 12 C-0.75409836 6.68852459 -0.75409836 6.68852459 -1 3 C-0.67 2.01 -0.34 1.02 0 0 Z " fill="#A5B9C8" transform="translate(87,142)"/>
<path d="M0 0 C1.65 0 3.3 0 5 0 C4.01 0.33 3.02 0.66 2 1 C2.04125 2.11375 2.0825 3.2275 2.125 4.375 C2 8 2 8 0 10 C-2.3828125 10.1953125 -2.3828125 10.1953125 -5.125 10.125 C-6.49011719 10.09792969 -6.49011719 10.09792969 -7.8828125 10.0703125 C-8.58148438 10.04710937 -9.28015625 10.02390625 -10 10 C-10 9.34 -10 8.68 -10 8 C-5.545 7.505 -5.545 7.505 -1 7 C-0.67 4.69 -0.34 2.38 0 0 Z " fill="#442E1C" transform="translate(90,162)"/>
<path d="M0 0 C2 4 2 4 2 8 C3.65 8.33 5.3 8.66 7 9 C7 9.66 7 10.32 7 11 C5.68 11 4.36 11 3 11 C3.33 11.66 3.66 12.32 4 13 C3.34 13 2.68 13 2 13 C1.34 13.99 0.68 14.98 0 16 C0 10.72 0 5.44 0 0 Z " fill="#C08E60" transform="translate(48,94)"/>
<path d="M0 0 C0.33 0 0.66 0 1 0 C1 3.63 1 7.26 1 11 C-3.29 11 -7.58 11 -12 11 C-11.67 10.34 -11.34 9.68 -11 9 C-8.96875 8.62109375 -8.96875 8.62109375 -6.5 8.4375 C-3.45018475 8.4207737 -3.45018475 8.4207737 -1 7 C-0.63239269 4.67182036 -0.29758419 2.3381615 0 0 Z " fill="#C9864E" transform="translate(92,163)"/>
<path d="M0 0 C0.33 0 0.66 0 1 0 C1 1.65 1 3.3 1 5 C1.61488281 5.20496094 2.22976562 5.40992188 2.86328125 5.62109375 C7.93164062 7.31054688 7.93164062 7.31054688 13 9 C13 9.99 13 10.98 13 12 C11.35 11.67 9.7 11.34 8 11 C7.67 10.01 7.34 9.02 7 8 C5.02 8 3.04 8 1 8 C-0.35439668 5.29120665 -0.06501451 2.99066732 0 0 Z " fill="#333D49" transform="translate(49,167)"/>
<path d="M0 0 C0.66 0.66 1.32 1.32 2 2 C1.01 2 0.02 2 -1 2 C-1.33 2.66 -1.66 3.32 -2 4 C-5.375 4.75 -5.375 4.75 -9 5 C-9.99 4.34 -10.98 3.68 -12 3 C-7.91526758 0.02928551 -5.0165166 -0.47325628 0 0 Z " fill="#9EB1C0" transform="translate(102,129)"/>
<path d="M0 0 C1.98 0 3.96 0 6 0 C5.01 0.33 4.02 0.66 3 1 C3 1.66 3 2.32 3 3 C4.32 3.33 5.64 3.66 7 4 C6.67 5.65 6.34 7.3 6 9 C3.5625 8.625 3.5625 8.625 1 8 C0.67 7.34 0.34 6.68 0 6 C2.475 6.495 2.475 6.495 5 7 C4.67 6.34 4.34 5.68 4 5 C1.97536745 4.34786708 1.97536745 4.34786708 0 4 C0 2.68 0 1.36 0 0 Z " fill="#6C5036" transform="translate(50,98)"/>
<path d="M0 0 C0.33 0 0.66 0 1 0 C1 4.29 1 8.58 1 13 C1.66 13.33 2.32 13.66 3 14 C1.35 14 -0.3 14 -2 14 C-1.85970581 11.8537974 -1.71261836 9.70803782 -1.5625 7.5625 C-1.48128906 6.36753906 -1.40007812 5.17257813 -1.31640625 3.94140625 C-1 1 -1 1 0 0 Z " fill="#0A0A09" transform="translate(96,114)"/>
<path d="M0 0 C4.95 0.33 9.9 0.66 15 1 C15 1.66 15 2.32 15 3 C10.05 3 5.1 3 0 3 C0 2.01 0 1.02 0 0 Z " fill="#4A321D" transform="translate(34,169)"/>
<path d="M0 0 C0.66 1.32 1.32 2.64 2 4 C1.01 5.485 1.01 5.485 0 7 C-0.66 7 -1.32 7 -2 7 C-2 9.97 -2 12.94 -2 16 C-3.54571278 13.68143083 -4.79618552 11.49361571 -6 9 C-4.73046875 7.53515625 -3.4609375 6.0703125 -2.19140625 4.60546875 C-0.79128769 2.89287029 -0.79128769 2.89287029 0 0 Z " fill="#8C979B" transform="translate(110,145)"/>
<path d="M0 0 C0 0.99 0 1.98 0 3 C-1.4800841 2.88637738 -2.95910074 2.75877092 -4.4375 2.625 C-5.26121094 2.55539063 -6.08492188 2.48578125 -6.93359375 2.4140625 C-7.61550781 2.27742187 -8.29742187 2.14078125 -9 2 C-9.33 1.34 -9.66 0.68 -10 0 C-6.30458414 -0.95024979 -3.69541586 -0.95024979 0 0 Z " fill="#72808A" transform="translate(101,133)"/>
<path d="M0 0 C1.65 0 3.3 0 5 0 C5 1.32 5 2.64 5 4 C5.99 4.33 6.98 4.66 8 5 C7.67 5.99 7.34 6.98 7 8 C5.83035398 6.8572081 4.66435444 5.71068285 3.5 4.5625 C2.8503125 3.92441406 2.200625 3.28632812 1.53125 2.62890625 C0 1 0 1 0 0 Z " fill="#071523" transform="translate(98,112)"/>
<path d="M0 0 C0.99 0.33 1.98 0.66 3 1 C3 1.66 3 2.32 3 3 C3.66 3.33 4.32 3.66 5 4 C4.34 4 3.68 4 3 4 C3 5.65 3 7.3 3 9 C2.34 9 1.68 9 1 9 C-0.4783226 6.04335481 -0.06032783 3.25770263 0 0 Z " fill="#E3A772" transform="translate(62,98)"/>
<path d="M0 0 C0.99 0 1.98 0 3 0 C3.33 2.97 3.66 5.94 4 9 C2.68 9 1.36 9 0 9 C0 6.03 0 3.06 0 0 Z " fill="#573F2B" transform="translate(59,98)"/>
<path d="M0 0 C0 0.99 0 1.98 0 3 C-1.65 3.33 -3.3 3.66 -5 4 C-5.33 2.68 -5.66 1.36 -6 0 C-3 -1 -3 -1 0 0 Z " fill="#7D5432" transform="translate(87,126)"/>
<path d="M0 0 C0 4.31618166 -2.13270348 5.92789659 -5 9 C-5.66 9 -6.32 9 -7 9 C-5.64978174 4.58110387 -3.73884332 2.65654657 0 0 Z " fill="#6789B2" transform="translate(75,122)"/>
<path d="M0 0 C0.99 0 1.98 0 3 0 C3 0.66 3 1.32 3 2 C4.32 2.33 5.64 2.66 7 3 C7 3.66 7 4.32 7 5 C4.69 5 2.38 5 0 5 C0 3.35 0 1.7 0 0 Z " fill="#634932" transform="translate(65,102)"/>
<path d="M0 0 C1.485 0.99 1.485 0.99 3 2 C3.1875 4.625 3.1875 4.625 3 7 C3.99 6.67 4.98 6.34 6 6 C6 6.99 6 7.98 6 9 C5.01 9.495 5.01 9.495 4 10 C3.34 9.67 2.68 9.34 2 9 C1.65977214 7.00116131 1.32670903 5.00109278 1 3 C0.34 2.34 -0.32 1.68 -1 1 C-0.67 0.67 -0.34 0.34 0 0 Z " fill="#444F5C" transform="translate(85,123)"/>
<path d="M0 0 C0.66 0 1.32 0 2 0 C2 1.32 2 2.64 2 4 C3.98 4 5.96 4 8 4 C6.68 4.99 5.36 5.98 4 7 C2 5.1875 2 5.1875 0 3 C0 2.01 0 1.02 0 0 Z " fill="#626769" transform="translate(94,178)"/>
<path d="M0 0 C0.98120464 3.05263664 0.98120464 4.94736336 0 8 C-0.66 8 -1.32 8 -2 8 C-1.67 8.99 -1.34 9.98 -1 11 C-1.99 11.33 -2.98 11.66 -4 12 C-2.66666667 8 -1.33333333 4 0 0 Z " fill="#4B5868" transform="translate(82,162)"/>
<path d="M0 0 C0.66 1.32 1.32 2.64 2 4 C0.02253397 4.73080266 -1.98072489 5.39421747 -4 6 C-4.66 5.67 -5.32 5.34 -6 5 C-6 4.34 -6 3.68 -6 3 C-4.02 3 -2.04 3 0 3 C0 2.01 0 1.02 0 0 Z " fill="#5B6669" transform="translate(106,158)"/>
<path d="M0 0 C1.32 0.66 2.64 1.32 4 2 C4 2.99 4 3.98 4 5 C2.35 5.33 0.7 5.66 -1 6 C-0.67 4.02 -0.34 2.04 0 0 Z " fill="#6E93BF" transform="translate(89,124)"/>
<path d="M0 0 C0.33 0 0.66 0 1 0 C1.36923077 6.52307692 1.36923077 6.52307692 -0.5 8.9375 C-0.995 9.288125 -1.49 9.63875 -2 10 C-2.33 8.68 -2.66 7.36 -3 6 C-2.34 6 -1.68 6 -1 6 C-0.67 4.02 -0.34 2.04 0 0 Z " fill="#6A5443" transform="translate(51,160)"/>
<path d="M0 0 C0.66 1.32 1.32 2.64 2 4 C1.01 5.485 1.01 5.485 0 7 C-0.66 7 -1.32 7 -2 7 C-2.33 8.32 -2.66 9.64 -3 11 C-3.33 10.34 -3.66 9.68 -4 9 C-3.67 8.01 -3.34 7.02 -3 6 C-2.34 6 -1.68 6 -1 6 C-0.67 4.02 -0.34 2.04 0 0 Z " fill="#624C3B" transform="translate(60,141)"/>
<path d="M0 0 C0 0.66 0 1.32 0 2 C-3.3125 3.125 -3.3125 3.125 -7 4 C-7.99 3.34 -8.98 2.68 -10 2 C-6.38026598 0.68373308 -3.90432869 0 0 0 Z " fill="#BBD2E3" transform="translate(100,130)"/>
<path d="M0 0 C3.465 1.485 3.465 1.485 7 3 C7 3.66 7 4.32 7 5 C4.625 4.75 4.625 4.75 2 4 C0.6875 1.9375 0.6875 1.9375 0 0 Z " fill="#445364" transform="translate(64,178)"/>
<path d="M0 0 C0.66 0 1.32 0 2 0 C2 1.65 2 3.3 2 5 C0.68 5 -0.64 5 -2 5 C-1.125 1.125 -1.125 1.125 0 0 Z " fill="#AF7544" transform="translate(88,115)"/>
<path d="M0 0 C1.98 0 3.96 0 6 0 C5.01 0.33 4.02 0.66 3 1 C3 1.66 3 2.32 3 3 C3.66 3.33 4.32 3.66 5 4 C3.35 4 1.7 4 0 4 C0 2.68 0 1.36 0 0 Z " fill="#3D2D1E" transform="translate(50,98)"/>
</svg>
